<svg xmlns="http://www.w3.org/2000/svg" viewBox="0 0 25585 64" width="25585" height="64"><path d="M10 49h8.3c.6 0 1.1-.2 1.5-.6 1.3-1.1 4.6-3.2 9.4.2.4.3.9.4 1.4.4h2.7c.8 0 1.6.4 2.1 1.1l1.3 1.8L42 10.3l4.8 44.5 1.7-4.2c.4-1 1.3-1.6 2.4-1.6h3.3c.8 0 1.5-.4 2-1 2.1-2.7 8.5-9.5 15.8.1.5.6 1.2.9 1.9.9h3M95 49h8.3c.6 0 1.1-.2 1.5-.6 1.3-1.1 4.6-3.2 9.4.2.4.3.9.4 1.4.4h2.7c.8 0 1.6.4 2.1 1.1l1.3 1.8 5.3-41.6 4.8 44.5 1.7-4.2c.4-1 1.3-1.6 2.4-1.6h3.3c.8 0 1.5-.4 2-1 2.1-2.7 8.5-9.571 15.8.1.5.6 1.2.9 1.9.9h3M180 49h8.3c.6 0 1.1-.2 1.5-.6 1.3-1.1 4.6-3.2 9.4.2.4.3.9.4 1.4.4h2.7c.8 0 1.6.4 2.1 1.1l1.3 1.8 5.3-41.6 4.8 44.5 1.7-4.2c.4-1 1.3-1.6 2.4-1.6h3.3c.8 0 1.5-.4 2-1 2.1-2.7 8.498-9.797 15.8.1.5.6 1.2.9 1.9.9h3M265 49h8.3c.6 0 1.1-.2 1.5-.6 1.3-1.1 4.6-3.2 9.4.2.4.3.9.4 1.4.4h2.7c.8 0 1.6.4 2.1 1.1l1.3 1.8 5.3-41.6 4.8 44.5 1.7-4.2c.4-1 1.3-1.6 2.4-1.6h3.3c.8 0 1.5-.4 2-1 2.1-2.7 8.496-10.202 15.8.1.5.6 1.2.9 1.9.9h3M350 49h8.3c.6 0 1.1-.2 1.5-.6 1.3-1.1 4.6-3.2 9.4.2.4.3.9.4 1.4.4h2.7c.8 0 1.6.4 2.1 1.1l1.3 1.8 5.3-41.6 4.8 44.5 1.7-4.2c.4-1 1.3-1.6 2.4-1.6h3.3c.8 0 1.5-.4 2-1 2.1-2.7 8.492-10.812 15.8.1.5.6 1.2.9 1.9.9h3M435 49h8.3c.6 0 1.1-.2 1.5-.6 1.3-1.1 4.6-3.2 9.4.2.4.3.9.4 1.4.4h2.7c.8 0 1.6.4 2.1 1.1l1.3 1.8 5.3-41.6 4.8 44.5 1.7-4.2c.4-1 1.3-1.6 2.4-1.6h3.3c.8 0 1.5-.4 2-1 2.1-2.7 8.487-11.662 15.8.1.5.6 1.2.9 1.9.9h3M520 49h8.3c.6 0 1.1-.2 1.5-.6 1.3-1.1 4.6-3.2 9.4.2.4.3.9.4 1.4.4h2.7c.8 0 1.6.4 2.1 1.1l1.3 1.8 5.3-41.6 4.8 44.5 1.7-4.2c.4-1 1.3-1.6 2.4-1.6h3.3c.8 0 1.5-.4 2-1 2.1-2.7 8.48-12.79 15.8.1.5.6 1.2.9 1.9.9h3M605 49h8.3c.6 0 1.1-.2 1.5-.6 1.3-1.1 4.6-3.2 9.4.2.4.3.9.4 1.4.4h2.7c.8 0 1.6.4 2.1 1.1l1.3 1.8 5.3-41.6 4.8 44.5 1.7-4.2c.4-1 1.3-1.6 2.4-1.6h3.3c.8 0 1.5-.4 2-1 2.1-2.7 8.471-14.242 15.8.1.5.6 1.2.9 1.9.9h3M690 49h8.3c.6 0 1.1-.2 1.5-.6 1.3-1.1 4.6-3.2 9.4.2.4.3.9.4 1.4.4h2.7c.8 0 1.6.4 2.1 1.1l1.3 1.8 5.3-41.6 4.8 44.5 1.7-4.2c.4-1 1.3-1.6 2.4-1.6h3.3c.8 0 1.5-.4 2-1 2.1-2.7 8.46-16.068 15.8.1.5.6 1.2.9 1.9.9h3M775 49h8.3c.6 0 1.1-.2 1.5-.6 1.3-1.1 4.6-3.2 9.4.2.4.3.9.4 1.4.4h2.7c.8 0 1.6.4 2.1 1.1l1.3 1.8 5.3-41.6 4.8 44.5 1.7-4.2c.4-1 1.3-1.6 2.4-1.6h3.3c.8 0 1.5-.4 2-1 2.1-2.7 8.447-18.318 15.8.1.5.6 1.2.9 1.9.9h3M860 49h8.3c.6 0 1.1-.2 1.5-.6 1.3-1.1 4.6-3.2 9.4.2.4.3.9.4 1.4.4h2.7c.8 0 1.6.4 2.1 1.1l1.3 1.8 5.3-41.6 4.8 44.5 1.7-4.2c.4-1 1.3-1.6 2.4-1.6h3.3c.8 0 1.5-.4 2-1 2.1-2.7 8.431-21.03 15.8.1.5.6 1.2.9 1.9.9h3M945 49h8.3c.6 0 1.1-.2 1.5-.6 1.3-1.1 4.6-3.2 9.4.2.4.3.9.4 1.4.4h2.7c.8 0 1.6.4 2.1 1.1l1.3 1.8 5.3-41.6 4.8 44.5 1.7-4.2c.4-1 1.3-1.6 2.4-1.6h3.3c.8 0 1.5-.4 2-1 2.1-2.7 8.412-24.211 15.8.1.5.6 1.2.9 1.9.9h3M1030 49h8.3c.6 0 1.1-.2 1.5-.6 1.3-1.1 4.6-3.2 9.4.2.4.3.9.4 1.4.4h2.7c.8 0 1.6.4 2.1 1.1l1.3 1.8 5.3-41.6 4.8 44.5 1.7-4.2c.4-1 1.3-1.6 2.4-1.6h3.3c.8 0 1.5-.4 2-1 2.1-2.7 8.39-27.809 15.8.1.5.6 1.2.9 1.9.9h3M1115 49h8.3c.6 0 1.1-.2 1.5-.6 1.3-1.1 4.6-3.2 9.4.2.4.3.9.4 1.4.4h2.7c.8 0 1.6.4 2.1 1.1l1.3 1.8 5.3-41.6 4.8 44.5 1.7-4.2c.4-1 1.3-1.6 2.4-1.6h3.3c.8 0 1.5-.4 2-1 2.1-2.7 8.366-31.704 15.8.1.5.6 1.2.9 1.9.9h3M1200 49h8.3c.6 0 1.1-.2 1.5-.6 1.3-1.1 4.6-3.2 9.4.2.4.3.9.4 1.4.4h2.7c.8 0 1.6.4 2.1 1.1l1.3 1.8 5.3-41.6 4.8 44.5 1.7-4.2c.4-1 1.3-1.6 2.4-1.6h3.3c.8 0 1.5-.4 2-1 2.1-2.7 8.342-35.719 15.8.1.5.6 1.2.9 1.9.9h3M1285 49h8.3c.6 0 1.1-.2 1.5-.6 1.3-1.1 4.6-3.2 9.4.2.4.3.9.4 1.4.4h2.7c.8 0 1.6.4 2.1 1.1l1.3 1.8 5.3-41.6 4.8 44.5 1.7-4.2c.4-1 1.3-1.6 2.4-1.6h3.3c.8 0 1.5-.4 2-1 2.1-2.7 8.318-39.675 15.8.1.5.6 1.2.9 1.9.9h3M1370 49h8.3c.6 0 1.1-.2 1.5-.6 1.3-1.1 4.6-3.2 9.4.2.4.3.9.4 1.4.4h2.7c.8 0 1.6.4 2.1 1.1l1.3 1.8 5.3-41.6 4.8 44.5 1.7-4.2c.4-1 1.3-1.6 2.4-1.6h3.3c.8 0 1.5-.4 2-1 2.1-2.7 8.296-43.433 15.8.1.5.6 1.2.9 1.9.9h3M1455 49h8.3c.6 0 1.1-.2 1.5-.6 1.3-1.1 4.6-3.2 9.4.2.4.3.9.4 1.4.4h2.7c.8 0 1.6.4 2.1 1.1l1.3 1.8 5.3-41.6 4.8 44.5 1.7-4.2c.4-1 1.3-1.6 2.4-1.6h3.3c.8 0 1.5-.4 2-1 2.1-2.7 8.275-46.914 15.8.1.5.6 1.2.9 1.9.9h3M1540 49h8.3c.6 0 1.1-.2 1.5-.6 1.3-1.1 4.6-3.2 9.4.2.4.3.9.4 1.4.4h2.7c.8 0 1.6.4 2.1 1.1l1.3 1.8 5.3-41.6 4.8 44.5 1.7-4.2c.4-1 1.3-1.6 2.4-1.6h3.3c.8 0 1.5-.4 2-1 2.1-2.7 8.256-50.087 15.8.1.5.6 1.2.9 1.9.9h3M1625 49h8.3c.6 0 1.1-.2 1.5-.6 1.3-1.1 4.6-3.2 9.4.2.4.3.9.4 1.4.4h2.7c.8 0 1.6.4 2.1 1.1l1.3 1.8 5.3-41.6 4.8 44.5 1.7-4.2c.4-1 1.3-1.6 2.4-1.6h3.3c.8 0 1.5-.4 2-1 2.1-2.7 8.239-52.956 15.8.1.5.6 1.2.9 1.9.9h3M1710 49h8.3c.6 0 1.1-.2 1.5-.6 1.3-1.1 4.6-3.2 9.4.2.4.3.9.4 1.4.4h2.7c.8 0 1.6.4 2.1 1.1l1.3 1.8 5.3-41.6 4.8 44.5 1.7-4.2c.4-1 1.3-1.6 2.4-1.6h3.3c.8 0 1.5-.4 2-1 2.1-2.7 8.223-55.538 15.8.1.5.6 1.2.9 1.9.9h3M1795 49h8.3c.6 0 1.1-.2 1.5-.6 1.3-1.1 4.6-3.2 9.4.2.4.3.9.4 1.4.4h2.7c.8 0 1.6.4 2.1 1.1l1.3 1.8 5.3-41.6 4.8 44.5 1.7-4.2c.4-1 1.3-1.6 2.4-1.6h3.3c.8 0 1.5-.4 2-1 2.1-2.7 8.209-57.859 15.8.1.5.6 1.2.9 1.9.9h3M1880 49h8.3c.6 0 1.1-.2 1.5-.6 1.3-1.1 4.6-3.2 9.4.2.4.3.9.4 1.4.4h2.7c.8 0 1.6.4 2.1 1.1l1.3 1.8 5.3-41.6 4.8 44.5 1.7-4.2c.4-1 1.3-1.6 2.4-1.6h3.3c.8 0 1.5-.4 2-1 2.1-2.7 8.197-59.945 15.8.1.5.6 1.2.9 1.9.9h3M1965 49h8.3c.6 0 1.1-.2 1.5-.6 1.3-1.1 4.6-3.2 9.4.2.4.3.9.4 1.4.4h2.7c.8 0 1.6.4 2.1 1.1l1.3 1.8 5.3-41.6 4.8 44.5 1.7-4.2c.4-1 1.3-1.6 2.4-1.6h3.3c.8 0 1.5-.4 2-1 2.1-2.7 8.185-61.82 15.8.1.5.6 1.2.9 1.9.9h3M2050 49h8.3c.6 0 1.1-.2 1.5-.6 1.3-1.1 4.6-3.2 9.4.2.4.3.9.4 1.4.4h2.7c.8 0 1.6.4 2.1 1.1l1.3 1.8 5.3-41.6 4.8 44.5 1.7-4.2c.4-1 1.3-1.6 2.4-1.6h3.3c.8 0 1.5-.4 2-1 2.1-2.7 8.175-63.507 15.8.1.5.6 1.2.9 1.9.9h3M2135 49h8.3c.6 0 1.1-.2 1.5-.6 1.3-1.1 4.6-3.2 9.4.2.4.3.9.4 1.4.4h2.7c.8 0 1.6.4 2.1 1.1l1.3 1.8 5.3-41.6 4.8 44.5 1.7-4.2c.4-1 1.3-1.6 2.4-1.6h3.3c.8 0 1.5-.4 2-1 2.1-2.7 8.166-65.026 15.8.1.5.6 1.2.9 1.9.9h3M2220 49h8.3c.6 0 1.1-.2 1.5-.6 1.3-1.1 4.6-3.2 9.4.2.4.3.9.4 1.4.4h2.7c.8 0 1.6.4 2.1 1.1l1.3 1.8 5.3-41.6 4.8 44.5 1.7-4.2c.4-1 1.3-1.6 2.4-1.6h3.3c.8 0 1.5-.4 2-1 2.1-2.7 8.158-66.394 15.8.1.5.6 1.2.9 1.9.9h3M2305 49h8.3c.6 0 1.1-.2 1.5-.6 1.3-1.1 4.6-3.2 9.4.2.4.3.9.4 1.4.4h2.7c.8 0 1.6.4 2.1 1.1l1.3 1.8 5.3-41.6 4.8 44.5 1.7-4.2c.4-1 1.3-1.6 2.4-1.6h3.3c.8 0 1.5-.4 2-1 2.1-2.7 8.15-67.626 15.8.1.5.6 1.2.9 1.9.9h3M2390 49h8.3c.6 0 1.1-.2 1.5-.6 1.3-1.1 4.6-3.2 9.4.2.4.3.9.4 1.4.4h2.7c.8 0 1.6.4 2.1 1.1l1.3 1.8 5.3-41.6 4.8 44.5 1.7-4.2c.4-1 1.3-1.6 2.4-1.6h3.3c.8 0 1.5-.4 2-1 2.1-2.7 8.144-68.736 15.8.1.5.6 1.2.9 1.9.9h3M2475 49h8.3c.6 0 1.1-.2 1.5-.6 1.3-1.1 4.6-3.2 9.4.2.4.3.9.4 1.4.4h2.7c.8 0 1.6.4 2.1 1.1l1.3 1.8 5.3-41.6 4.8 44.5 1.7-4.2c.4-1 1.3-1.6 2.4-1.6h3.3c.8 0 1.5-.4 2-1 2.1-2.7 8.138-69.734 15.8.1.5.6 1.2.9 1.9.9h3M2560 49h8.3c.6 0 1.1-.2 1.5-.6 1.3-1.1 4.6-3.2 9.4.2.4.3.9.4 1.4.4h2.7c.8 0 1.6.4 2.1 1.1l1.3 1.8 5.3-41.6 4.8 44.5 1.7-4.2c.4-1 1.3-1.6 2.4-1.6h3.3c.8 0 1.5-.4 2-1 2.1-2.7 8.132-70.63 15.8.1.5.6 1.2.9 1.9.9h3M2645 49h8.3c.6 0 1.1-.2 1.5-.6 1.3-1.1 4.6-3.2 9.4.2.4.3.9.4 1.4.4h2.7c.8 0 1.6.4 2.1 1.1l1.3 1.8 5.3-41.6 4.8 44.5 1.7-4.2c.4-1 1.3-1.6 2.4-1.6h3.3c.8 0 1.5-.4 2-1 2.1-2.7 8.127-71.434 15.8.1.5.6 1.2.9 1.9.9h3M2730 49h8.3c.6 0 1.1-.2 1.5-.6 1.3-1.1 4.6-3.2 9.4.2.4.3.9.4 1.4.4h2.7c.8 0 1.6.4 2.1 1.1l1.3 1.8 5.3-41.6 4.8 44.5 1.7-4.2c.4-1 1.3-1.6 2.4-1.6h3.3c.8 0 1.5-.4 2-1 2.1-2.7 8.123-72.152 15.8.1.5.6 1.2.9 1.9.9h3M2815 49h8.3c.6 0 1.1-.2 1.5-.6 1.3-1.1 4.6-3.2 9.4.2.4.3.9.4 1.4.4h2.7c.8 0 1.6.4 2.1 1.1l1.3 1.8 5.3-41.6 4.8 44.5 1.7-4.2c.4-1 1.3-1.6 2.4-1.6h3.3c.8 0 1.5-.4 2-1 2.1-2.7 8.119-72.792 15.8.1.5.6 1.2.9 1.9.9h3M2900 49h8.3c.6 0 1.1-.2 1.5-.6 1.3-1.1 4.6-3.2 9.4.2.4.3.9.4 1.4.4h2.7c.8 0 1.6.4 2.1 1.1l1.3 1.8 5.3-41.6 4.8 44.5 1.7-4.2c.4-1 1.3-1.6 2.4-1.6h3.3c.8 0 1.5-.4 2-1 2.1-2.7 8.116-73.36 15.8.1.5.6 1.2.9 1.9.9h3M2985 49h8.3c.6 0 1.1-.2 1.5-.6 1.3-1.1 4.6-3.2 9.4.2.4.3.9.4 1.4.4h2.7c.8 0 1.6.4 2.1 1.1l1.3 1.8 5.3-41.6 4.8 44.5 1.7-4.2c.4-1 1.3-1.6 2.4-1.6h3.3c.8 0 1.5-.4 2-1 2.1-2.7 8.113-73.86 15.8.1.5.6 1.2.9 1.9.9h3M3070 49h8.3c.6 0 1.1-.2 1.5-.6 1.3-1.1 4.6-3.2 9.4.2.4.3.9.4 1.4.4h2.7c.8 0 1.6.4 2.1 1.1l1.3 1.8 5.3-41.6 4.8 44.5 1.7-4.2c.4-1 1.3-1.6 2.4-1.6h3.3c.8 0 1.5-.4 2-1 2.1-2.7 8.11-74.297 15.8.1.5.6 1.2.9 1.9.9h3M3155 49h8.3c.6 0 1.1-.2 1.5-.6 1.3-1.1 4.6-3.2 9.4.2.4.3.9.4 1.4.4h2.7c.8 0 1.6.4 2.1 1.1l1.3 1.8 5.3-41.6 4.8 44.5 1.7-4.2c.4-1 1.3-1.6 2.4-1.6h3.3c.8 0 1.5-.4 2-1 2.1-2.7 8.108-74.676 15.8.1.5.6 1.2.9 1.9.9h3M3240 49h8.3c.6 0 1.1-.2 1.5-.6 1.3-1.1 4.6-3.2 9.4.2.4.3.9.4 1.4.4h2.7c.8 0 1.6.4 2.1 1.1l1.3 1.8 5.3-41.6 4.8 44.5 1.7-4.2c.4-1 1.3-1.6 2.4-1.6h3.3c.8 0 1.5-.4 2-1 2.1-2.7 8.106-75.001 15.8.1.5.6 1.2.9 1.9.9h3M3325 49h8.3c.6 0 1.1-.2 1.5-.6 1.3-1.1 4.6-3.2 9.4.2.4.3.9.4 1.4.4h2.7c.8 0 1.6.4 2.1 1.1l1.3 1.8 5.3-41.6 4.8 44.5 1.7-4.2c.4-1 1.3-1.6 2.4-1.6h3.3c.8 0 1.5-.4 2-1 2.1-2.7 8.104-75.275 15.8.1.5.6 1.2.9 1.9.9h3M3410 49h8.3c.6 0 1.1-.2 1.5-.6 1.3-1.1 4.6-3.2 9.4.2.4.3.9.4 1.4.4h2.7c.8 0 1.6.4 2.1 1.1l1.3 1.8 5.3-41.6 4.8 44.5 1.7-4.2c.4-1 1.3-1.6 2.4-1.6h3.3c.8 0 1.5-.4 2-1 2.1-2.7 8.103-75.5 15.8.1.5.6 1.2.9 1.9.9h3M3495 49h8.3c.6 0 1.1-.2 1.5-.6 1.3-1.1 4.6-3.2 9.4.2.4.3.9.4 1.4.4h2.7c.8 0 1.6.4 2.1 1.1l1.3 1.8 5.3-41.6 4.8 44.5 1.7-4.2c.4-1 1.3-1.6 2.4-1.6h3.3c.8 0 1.5-.4 2-1 2.1-2.7 8.102-75.681 15.8.1.5.6 1.2.9 1.9.9h3M3580 49h8.3c.6 0 1.1-.2 1.5-.6 1.3-1.1 4.6-3.2 9.4.2.4.3.9.4 1.4.4h2.7c.8 0 1.6.4 2.1 1.1l1.3 1.8 5.3-41.6 4.8 44.5 1.7-4.2c.4-1 1.3-1.6 2.4-1.6h3.3c.8 0 1.5-.4 2-1 2.1-2.7 8.101-75.819 15.8.1.5.6 1.2.9 1.9.9h3M3665 49h8.3c.6 0 1.1-.2 1.5-.6 1.3-1.1 4.6-3.2 9.4.2.4.3.9.4 1.4.4h2.7c.8 0 1.6.4 2.1 1.1l1.3 1.8 5.3-41.6 4.8 44.5 1.7-4.2c.4-1 1.3-1.6 2.4-1.6h3.3c.8 0 1.5-.4 2-1 2.1-2.7 8.101-75.916 15.8.1.5.6 1.2.9 1.9.9h3M3750 49h8.3c.6 0 1.1-.2 1.5-.6 1.3-1.1 4.6-3.2 9.4.2.4.3.9.4 1.4.4h2.7c.8 0 1.6.4 2.1 1.1l1.3 1.8 5.3-41.6 4.8 44.5 1.7-4.2c.4-1 1.3-1.6 2.4-1.6h3.3c.8 0 1.5-.4 2-1 2.1-2.7 8.1-75.976 15.8.1.5.6 1.2.9 1.9.9h3M3835 49h8.3c.6 0 1.1-.2 1.5-.6 1.3-1.1 4.6-3.2 9.4.2.4.3.9.4 1.4.4h2.7c.8 0 1.6.4 2.1 1.1l1.3 1.8 5.3-41.6 4.8 44.5 1.7-4.2c.4-1 1.3-1.6 2.4-1.6h3.3c.8 0 1.5-.4 2-1 2.1-2.7 8.1-75.999 15.8.1.5.6 1.2.9 1.9.9h3M3920 49h8.3c.6 0 1.1-.2 1.5-.6 1.3-1.1 4.6-3.2 9.4.2.4.3.9.4 1.4.4h2.7c.8 0 1.6.4 2.1 1.1l1.3 1.8 5.3-41.6 4.8 44.5 1.7-4.2c.4-1 1.3-1.6 2.4-1.6h3.3c.8 0 1.5-.4 2-1 2.1-2.7 8.1-76 15.8.1.5.6 1.2.9 1.9.9h3M4005 49h8.3c.6 0 1.1-.2 1.5-.6 1.3-1.1 4.6-3.2 9.4.2.4.3.9.4 1.4.4h2.7c.8 0 1.6.4 2.1 1.1l1.3 1.8 5.3-41.6 4.8 44.5 1.7-4.2c.4-1 1.3-1.6 2.4-1.6h3.3c.8 0 1.5-.4 2-1 2.1-2.7 8.1-76 15.8.1.5.6 1.2.9 1.9.9h3M4090 49h8.3c.6 0 1.1-.2 1.5-.6 1.3-1.1 4.6-3.2 9.4.2.4.3.9.4 1.4.4h2.7c.8 0 1.6.4 2.1 1.1l1.3 1.8 5.3-41.6 4.8 44.5 1.7-4.2c.4-1 1.3-1.6 2.4-1.6h3.3c.8 0 1.5-.4 2-1 2.1-2.7 8.1-76 15.8.1.5.6 1.2.9 1.9.9h3M4175 49h8.3c.6 0 1.1-.2 1.5-.6 1.3-1.1 4.6-3.2 9.4.2.4.3.9.4 1.4.4h2.7c.8 0 1.6.4 2.1 1.1l1.3 1.8 5.3-41.6 4.8 44.5 1.7-4.2c.4-1 1.3-1.6 2.4-1.6h3.3c.8 0 1.5-.4 2-1 2.1-2.7 8.1-76 15.8.1.5.6 1.2.9 1.9.9h3M4260 49h8.3c.6 0 1.1-.2 1.5-.6 1.3-1.1 4.6-3.2 9.4.2.4.3.9.4 1.4.4h2.7c.8 0 1.6.4 2.1 1.1l1.3 1.8 5.3-41.6 4.8 44.5 1.7-4.2c.4-1 1.3-1.6 2.4-1.6h3.3c.8 0 1.5-.4 2-1 2.1-2.7 8.1-76 15.8.1.5.6 1.2.9 1.9.9h3M4345 49h8.3c.6 0 1.1-.2 1.5-.6 1.3-1.1 4.6-3.2 9.4.2.4.3.9.4 1.4.4h2.7c.8 0 1.6.4 2.1 1.1l1.3 1.8 5.3-41.6 4.8 44.5 1.7-4.2c.4-1 1.3-1.6 2.4-1.6h3.3c.8 0 1.5-.4 2-1 2.1-2.7 8.1-76 15.8.1.5.6 1.2.9 1.9.9h3M4430 49h8.3c.6 0 1.1-.2 1.5-.6 1.3-1.1 4.6-3.2 9.4.2.4.3.9.4 1.4.4h2.7c.8 0 1.6.4 2.1 1.1l1.3 1.8 5.3-41.6 4.8 44.5 1.7-4.2c.4-1 1.3-1.6 2.4-1.6h3.3c.8 0 1.5-.4 2-1 2.1-2.7 8.1-76 15.8.1.5.6 1.2.9 1.9.9h3M4515 49h8.3c.6 0 1.1-.2 1.5-.6 1.3-1.1 4.6-3.2 9.4.2.4.3.9.4 1.4.4h2.7c.8 0 1.6.4 2.1 1.1l1.3 1.8 5.3-41.6 4.8 44.5 1.7-4.2c.4-1 1.3-1.6 2.4-1.6h3.3c.8 0 1.5-.4 2-1 2.1-2.7 8.1-76 15.8.1.5.6 1.2.9 1.9.9h3M4600 49h8.3c.6 0 1.1-.2 1.5-.6 1.3-1.1 4.6-3.2 9.4.2.4.3.9.4 1.4.4h2.7c.8 0 1.6.4 2.1 1.1l1.3 1.8 5.3-41.6 4.8 44.5 1.7-4.2c.4-1 1.3-1.6 2.4-1.6h3.3c.8 0 1.5-.4 2-1 2.1-2.7 8.1-76 15.8.1.5.6 1.2.9 1.9.9h3M4685 49h8.3c.6 0 1.1-.2 1.5-.6 1.3-1.1 4.6-3.2 9.4.2.4.3.9.4 1.4.4h2.7c.8 0 1.6.4 2.1 1.1l1.3 1.8 5.3-41.6 4.8 44.5 1.7-4.2c.4-1 1.3-1.6 2.4-1.6h3.3c.8 0 1.5-.4 2-1 2.1-2.7 8.1-76 15.8.1.5.6 1.2.9 1.9.9h3M4770 49h8.3c.6 0 1.1-.2 1.5-.6 1.3-1.1 4.6-3.2 9.4.2.4.3.9.4 1.4.4h2.7c.8 0 1.6.4 2.1 1.1l1.3 1.8 5.3-41.6 4.8 44.5 1.7-4.2c.4-1 1.3-1.6 2.4-1.6h3.3c.8 0 1.5-.4 2-1 2.1-2.7 8.1-76 15.8.1.5.6 1.2.9 1.9.9h3M4855 49h8.3c.6 0 1.1-.2 1.5-.6 1.3-1.1 4.6-3.2 9.4.2.4.3.9.4 1.4.4h2.7c.8 0 1.6.4 2.1 1.1l1.3 1.8 5.3-41.6 4.8 44.5 1.7-4.2c.4-1 1.3-1.6 2.4-1.6h3.3c.8 0 1.5-.4 2-1 2.1-2.7 8.1-76 15.8.1.5.6 1.2.9 1.9.9h3M4940 49h8.3c.6 0 1.1-.2 1.5-.6 1.3-1.1 4.6-3.2 9.4.2.4.3.9.4 1.4.4h2.7c.8 0 1.6.4 2.1 1.1l1.3 1.8 5.3-41.6 4.8 44.5 1.7-4.2c.4-1 1.3-1.6 2.4-1.6h3.3c.8 0 1.5-.4 2-1 2.1-2.7 8.1-76 15.8.1.5.6 1.2.9 1.9.9h3M5025 49h8.3c.6 0 1.1-.2 1.5-.6 1.3-1.1 4.6-3.2 9.4.2.4.3.9.4 1.4.4h2.7c.8 0 1.6.4 2.1 1.1l1.3 1.8 5.3-41.6 4.8 44.5 1.7-4.2c.4-1 1.3-1.6 2.4-1.6h3.3c.8 0 1.5-.4 2-1 2.1-2.7 8.1-76 15.8.1.5.6 1.2.9 1.9.9h3M5110 49h8.3c.6 0 1.1-.2 1.5-.6 1.3-1.1 4.6-3.2 9.4.2.4.3.9.4 1.4.4h2.7c.8 0 1.6.4 2.1 1.1l1.3 1.8 5.3-41.6 4.8 44.5 1.7-4.201c.4-1 1.3-1.6 2.4-1.6h3.3c.8 0 1.5-.4 2-1 2.1-2.7 8.1-75.998 15.8.101.5.6 1.2.9 1.9.9h3M5195 49h8.3c.6 0 1.1-.2 1.5-.6 1.3-1.1 4.6-3.2 9.4.2.4.3.9.4 1.4.4h2.7c.8 0 1.6.4 2.1 1.1l1.3 1.8 5.3-41.6 4.8 44.5 1.707-4.237c.4-1 1.3-1.6 2.4-1.6h3.3c.8 0 1.5-.4 2-1 2.1-2.7 8.101-75.938 15.793.137.5.6 1.2.9 1.9.9h3M5280 49h8.3c.6 0 1.1-.2 1.5-.6 1.3-1.1 4.6-3.2 9.4.2.4.3.9.4 1.4.4h2.7c.8 0 1.6.4 2.1 1.1l1.3 1.8 5.3-41.6 4.8 44.5 1.724-4.331c.4-1 1.3-1.6 2.4-1.6h3.3c.8 0 1.5-.4 2-1 2.1-2.7 8.104-75.778 15.776.231.5.6 1.2.9 1.9.9h3M5365 49h8.3c.6 0 1.1-.2 1.5-.6 1.3-1.1 4.6-3.2 9.4.2.4.3.9.4 1.4.4h2.7c.8 0 1.6.4 2.1 1.1l1.3 1.8 5.3-41.6 4.8 44.5 1.753-4.494c.4-1 1.3-1.6 2.4-1.6h3.3c.8 0 1.5-.4 2-1 2.1-2.7 8.11-75.504 15.747.394.5.6 1.2.9 1.9.9h3M5450 49h8.3c.6 0 1.1-.2 1.5-.6 1.3-1.1 4.6-3.2 9.4.2.4.3.9.4 1.4.4h2.7c.8 0 1.6.4 2.1 1.1l1.3 1.8 5.3-41.6 4.8 44.5 1.797-4.735c.4-1 1.3-1.6 2.4-1.6h3.3c.8 0 1.5-.4 2-1 2.1-2.7 8.118-75.096 15.703.635.5.6 1.2.9 1.9.9h3M5535 49h8.3c.6 0 1.1-.2 1.5-.6 1.3-1.1 4.6-3.2 9.4.2.4.3.9.4 1.4.4h2.7c.8 0 1.6.4 2.1 1.1l1.3 1.8 5.3-41.6 4.8 44.5 1.857-5.067c.4-1 1.3-1.6 2.4-1.6h3.3c.8 0 1.5-.4 2-1 2.1-2.7 8.129-74.535 15.643.967.5.6 1.2.9 1.9.9h3M5620 49h8.3c.6 0 1.1-.2 1.5-.6 1.3-1.1 4.6-3.2 9.4.2.4.3.9.4 1.4.4h2.7c.8 0 1.6.4 2.1 1.1l1.3 1.8 5.3-41.6 4.8 44.5 1.936-5.506c.4-1 1.3-1.6 2.4-1.6h3.3c.8 0 1.5-.4 2-1 2.1-2.7 8.144-73.794 15.564 1.406.5.6 1.2.9 1.9.9h3M5705 49h8.3c.6 0 1.1-.2 1.5-.6 1.3-1.1 4.6-3.2 9.4.2.4.3.9.4 1.4.4h2.7c.8 0 1.6.4 2.1 1.1l1.3 1.8 5.3-41.6 4.8 44.5 2.038-6.07c.4-1 1.3-1.6 2.4-1.6h3.3c.8 0 1.5-.4 2-1 2.1-2.7 8.163-72.842 15.462 1.97.5.6 1.2.9 1.9.9h3M5790 49h8.3c.6 0 1.1-.2 1.5-.6 1.3-1.1 4.6-3.2 9.4.2.4.3.9.4 1.4.4h2.7c.8 0 1.6.4 2.1 1.1l1.3 1.8 5.3-41.6 4.8 44.5 2.165-6.776c.4-1 1.3-1.6 2.4-1.6h3.3c.8 0 1.5-.4 2-1 2.1-2.7 8.187-71.649 15.335 2.676.5.6 1.2.9 1.9.9h3M5875 49h8.3c.6 0 1.1-.2 1.5-.6 1.3-1.1 4.6-3.2 9.4.2.4.3.9.4 1.4.4h2.7c.8 0 1.6.4 2.1 1.1l1.3 1.8 5.3-41.6 4.8 44.5 2.322-7.644c.4-1 1.3-1.6 2.4-1.6h3.3c.8 0 1.5-.4 2-1 2.1-2.7 8.216-70.183 15.178 3.544.5.6 1.2.9 1.9.9h3M5960 49h8.3c.6 0 1.1-.2 1.5-.6 1.3-1.1 4.6-3.2 9.4.2.4.3.9.4 1.4.4h2.7c.8 0 1.6.4 2.1 1.1l1.3 1.8 5.3-41.6 4.8 44.5 2.51-8.685c.4-1 1.3-1.6 2.4-1.6h3.3c.8 0 1.5-.4 2-1 2.1-2.7 8.251-68.424 14.99 4.585.5.6 1.2.9 1.9.9h3M6045 49h8.3c.6 0 1.1-.2 1.5-.6 1.3-1.1 4.6-3.2 9.4.2.4.3.9.4 1.4.4h2.7c.8 0 1.6.4 2.1 1.1l1.3 1.8 5.3-41.6 4.8 44.5 2.729-9.895c.4-1 1.3-1.6 2.4-1.6h3.3c.8 0 1.5-.4 2-1 2.1-2.7 8.291-66.381 14.771 5.795.5.6 1.2.9 1.9.9h3M6130 49h8.3c.6 0 1.1-.2 1.5-.6 1.3-1.1 4.6-3.2 9.4.2.4.3.9.4 1.4.4h2.7c.8 0 1.6.4 2.1 1.1l1.3 1.8 5.3-41.6 4.8 44.5 2.973-11.246c.4-1 1.3-1.6 2.4-1.6h3.3c.8 0 1.5-.4 2-1 2.1-2.7 8.337-64.099 14.527 7.146.5.6 1.2.9 1.9.9h3M6215 49h8.3c.6 0 1.1-.2 1.5-.6 1.3-1.1 4.6-3.2 9.4.2.4.3.9.4 1.4.4h2.7c.8 0 1.6.4 2.1 1.1l1.3 1.8 5.3-41.6 4.8 44.5 3.233-12.685c.4-1 1.3-1.6 2.4-1.6h3.3c.8 0 1.5-.4 2-1 2.1-2.7 8.385-61.669 14.267 8.585.5.6 1.2.9 1.9.9h3M6300 49h8.3c.6 0 1.1-.2 1.5-.6 1.3-1.1 4.6-3.2 9.4.2.4.3.9.4 1.4.4h2.7c.8 0 1.6.4 2.1 1.1l1.3 1.8 5.3-41.6 4.8 44.5 3.496-14.142c.4-1 1.3-1.6 2.4-1.6h3.3c.8 0 1.5-.4 2-1 2.1-2.7 8.434-59.207 14.004 10.042.5.6 1.2.9 1.9.9h3M6385 49h8.3c.6 0 1.1-.2 1.5-.6 1.3-1.1 4.6-3.2 9.4.2.4.3.9.4 1.4.4h2.7c.8 0 1.6.4 2.1 1.1l1.3 1.8 5.3-41.6 4.8 44.5 3.752-15.555c.4-1 1.3-1.6 2.4-1.6h3.3c.8 0 1.5-.4 2-1 2.1-2.7 8.481-56.821 13.748 11.455.5.6 1.2.9 1.9.9h3M6470 49h8.3c.6 0 1.1-.2 1.5-.6 1.3-1.1 4.6-3.2 9.4.2.4.3.9.4 1.4.4h2.7c.8 0 1.6.4 2.1 1.1l1.3 1.8 5.3-41.6 4.8 44.5 3.991-16.881c.4-1 1.3-1.6 2.4-1.6h3.3c.8 0 1.5-.4 2-1 2.1-2.7 8.526-54.581 13.509 12.781.5.6 1.2.9 1.9.9h3M6555 49h8.3c.6 0 1.1-.2 1.5-.6 1.3-1.1 4.6-3.2 9.4.2.4.3.9.4 1.4.4h2.7c.8 0 1.6.4 2.1 1.1l1.3 1.8 5.3-41.6 4.8 44.5 4.211-18.098c.4-1 1.3-1.6 2.4-1.6h3.3c.8 0 1.5-.4 2-1 2.1-2.7 8.567-52.525 13.289 13.998.5.6 1.2.9 1.9.9h3M6640 49h8.3c.6 0 1.1-.2 1.5-.6 1.3-1.1 4.6-3.2 9.4.2.4.3.9.4 1.4.4h2.7c.8 0 1.6.4 2.1 1.1l1.3 1.8 5.3-41.6 4.8 44.5 4.41-19.201c.4-1 1.3-1.6 2.4-1.6h3.3c.8 0 1.5-.4 2-1 2.1-2.7 8.604-50.662 13.09 15.101.5.6 1.2.9 1.9.9h3M6725 49h8.3c.6 0 1.1-.2 1.5-.6 1.3-1.1 4.6-3.2 9.4.2.4.3.9.4 1.4.4h2.7c.8 0 1.6.4 2.1 1.1l1.3 1.8 5.3-41.6 4.8 44.5 4.59-20.194c.4-1 1.3-1.6 2.4-1.6h3.3c.8 0 1.5-.4 2-1 2.1-2.7 8.637-48.985 12.91 16.094.5.6 1.2.9 1.9.9h3M6810 49h8.3c.6 0 1.1-.2 1.5-.6 1.3-1.1 4.6-3.2 9.4.2.4.3.9.4 1.4.4h2.7c.8 0 1.6.4 2.1 1.1l1.3 1.8 5.3-41.6 4.8 44.5 4.751-21.086c.4-1 1.3-1.6 2.4-1.6h3.3c.8 0 1.5-.4 2-1 2.1-2.7 8.667-47.478 12.749 16.986.5.6 1.2.9 1.9.9h3M6895 49h8.3c.6 0 1.1-.2 1.5-.6 1.3-1.1 4.6-3.2 9.4.2.4.3.9.4 1.4.4h2.7c.8 0 1.6.4 2.1 1.1l1.3 1.8 5.3-41.6 4.8 44.5 4.895-21.886c.4-1 1.3-1.6 2.4-1.6h3.3c.8 0 1.5-.4 2-1 2.1-2.7 8.695-46.127 12.605 17.786.5.6 1.2.9 1.9.9h3M6980 49h8.3c.6 0 1.1-.2 1.5-.6 1.3-1.1 4.6-3.2 9.4.2.4.3.9.4 1.4.4h2.7c.8 0 1.6.4 2.1 1.1l1.3 1.8 5.3-41.6 4.8 44.5 5.025-22.604c.4-1 1.3-1.6 2.4-1.6h3.3c.8 0 1.5-.4 2-1 2.1-2.7 8.719-44.914 12.475 18.504.5.6 1.2.9 1.9.9h3M7065 49h8.3c.6 0 1.1-.2 1.5-.6 1.3-1.1 4.6-3.2 9.4.2.4.3.9.4 1.4.4h2.7c.8 0 1.6.4 2.1 1.1l1.3 1.8 5.3-41.6 4.8 44.5 5.142-23.249c.4-1 1.3-1.6 2.4-1.6h3.3c.8 0 1.5-.4 2-1 2.1-2.7 8.74-43.825 12.358 19.149.5.6 1.2.9 1.9.9h3M7150 49h8.3c.6 0 1.1-.2 1.5-.6 1.3-1.1 4.6-3.2 9.4.2.4.3.9.4 1.4.4h2.7c.8 0 1.6.4 2.1 1.1l1.3 1.8 5.3-41.6 4.8 44.5 5.246-23.829c.4-1 1.3-1.6 2.4-1.6h3.3c.8 0 1.5-.4 2-1 2.1-2.7 8.76-42.845 12.254 19.729.5.6 1.2.9 1.9.9h3M7235 49h8.3c.6 0 1.1-.2 1.5-.6 1.3-1.1 4.6-3.2 9.4.2.4.3.9.4 1.4.4h2.7c.8 0 1.6.4 2.1 1.1l1.3 1.8 5.3-41.6 4.8 44.5 5.34-24.35c.4-1 1.3-1.6 2.4-1.6h3.3c.8 0 1.5-.4 2-1 2.1-2.7 8.778-41.965 12.16 20.25.5.6 1.2.9 1.9.9h3M7320 49h8.3c.6 0 1.1-.2 1.5-.6 1.3-1.1 4.6-3.2 9.4.2.4.3.9.4 1.4.4h2.7c.8 0 1.6.4 2.1 1.1l1.3 1.8 5.3-41.6 4.8 44.5 5.425-24.818c.4-1 1.3-1.6 2.4-1.6h3.3c.8 0 1.5-.4 2-1 2.1-2.7 8.793-41.174 12.075 20.718.5.6 1.2.9 1.9.9h3M7405 49h8.3c.6 0 1.1-.2 1.5-.6 1.3-1.1 4.6-3.2 9.4.2.4.3.9.4 1.4.4h2.7c.8 0 1.6.4 2.1 1.1l1.3 1.8 5.3-41.6 4.8 44.5 5.501-25.24c.4-1 1.3-1.6 2.4-1.6h3.3c.8 0 1.5-.4 2-1 2.1-2.7 8.807-40.462 11.999 21.14.5.6 1.2.9 1.9.9h3M7490 49h8.3c.6 0 1.1-.2 1.5-.6 1.3-1.1 4.6-3.2 9.4.2.4.3.9.4 1.4.4h2.7c.8 0 1.6.4 2.1 1.1l1.3 1.8 5.3-41.6 4.8 44.5 5.57-25.618c.4-1 1.3-1.6 2.4-1.6h3.3c.8 0 1.5-.4 2-1 2.1-2.7 8.82-39.823 11.93 21.518.5.6 1.2.9 1.9.9h3M7575 49h8.3c.6 0 1.1-.2 1.5-.6 1.3-1.1 4.6-3.2 9.4.2.4.3.9.4 1.4.4h2.7c.8 0 1.6.4 2.1 1.1l1.3 1.8 5.3-41.6 4.8 44.5 5.631-25.958c.4-1 1.3-1.6 2.4-1.6h3.3c.8 0 1.5-.4 2-1 2.1-2.7 8.831-39.249 11.869 21.858.5.6 1.2.9 1.9.9h3M7660 49h8.3c.6 0 1.1-.2 1.5-.6 1.3-1.1 4.6-3.2 9.4.2.4.3.9.4 1.4.4h2.7c.8 0 1.6.4 2.1 1.1l1.3 1.8 5.3-41.6 4.8 44.5 5.686-26.262c.4-1 1.3-1.6 2.4-1.6h3.3c.8 0 1.5-.4 2-1 2.1-2.7 8.842-38.735 11.814 22.162.5.6 1.2.9 1.9.9h3M7745 49h8.3c.6 0 1.1-.2 1.5-.6 1.3-1.1 4.6-3.2 9.4.2.4.3.9.4 1.4.4h2.7c.8 0 1.6.4 2.1 1.1l1.3 1.8 5.3-41.6 4.8 44.5 5.735-26.534c.4-1 1.3-1.6 2.4-1.6h3.3c.8 0 1.5-.4 2-1 2.1-2.7 8.851-38.276 11.765 22.434.5.6 1.2.9 1.9.9h3M7830 49h8.3c.6 0 1.1-.2 1.5-.6 1.3-1.1 4.6-3.2 9.4.2.4.3.9.4 1.4.4h2.7c.8 0 1.6.4 2.1 1.1l1.3 1.8 5.3-41.6 4.8 44.5 5.779-26.776c.4-1 1.3-1.6 2.4-1.6h3.3c.8 0 1.5-.4 2-1 2.1-2.7 8.859-37.867 11.721 22.676.5.6 1.2.9 1.9.9h3M7915 49h8.3c.6 0 1.1-.2 1.5-.6 1.3-1.1 4.6-3.2 9.4.2.4.3.9.4 1.4.4h2.7c.8 0 1.6.4 2.1 1.1l1.3 1.8 5.3-41.6 4.8 44.5 5.818-26.991c.4-1 1.3-1.6 2.4-1.6h3.3c.8 0 1.5-.4 2-1 2.1-2.7 8.866-37.504 11.682 22.891.5.6 1.2.9 1.9.9h3M8000 49h8.3c.6 0 1.1-.2 1.5-.6 1.3-1.1 4.6-3.2 9.4.2.4.3.9.4 1.4.4h2.7c.8 0 1.6.4 2.1 1.1l1.3 1.8 5.3-41.6 4.8 44.5 5.852-27.18c.4-1 1.3-1.6 2.4-1.6h3.3c.8 0 1.5-.4 2-1 2.1-2.7 8.872-37.185 11.648 23.08.5.6 1.2.9 1.9.9h3M8085 49h8.3c.6 0 1.1-.2 1.5-.6 1.3-1.1 4.6-3.2 9.4.2.4.3.9.4 1.4.4h2.7c.8 0 1.6.4 2.1 1.1l1.3 1.8 5.3-41.6 4.8 44.5 5.882-27.346c.4-1 1.3-1.6 2.4-1.6h3.3c.8 0 1.5-.4 2-1 2.1-2.7 8.878-36.905 11.618 23.246.5.6 1.2.9 1.9.9h3M8170 49h8.3c.6 0 1.1-.2 1.5-.6 1.3-1.1 4.6-3.2 9.4.2.4.3.9.4 1.4.4h2.7c.8 0 1.6.4 2.1 1.1l1.3 1.8 5.3-41.6 4.8 44.5 5.908-27.49c.4-1 1.3-1.6 2.4-1.6h3.3c.8 0 1.5-.4 2-1 2.1-2.7 8.883-36.662 11.592 23.39.5.6 1.2.9 1.9.9h3M8255 49h8.3c.6 0 1.1-.2 1.5-.6 1.3-1.1 4.6-3.2 9.4.2.4.3.9.4 1.4.4h2.7c.8 0 1.6.4 2.1 1.1l1.3 1.8 5.3-41.6 4.8 44.5 5.93-27.613c.4-1 1.3-1.6 2.4-1.6h3.3c.8 0 1.5-.4 2-1 2.1-2.7 8.887-36.454 11.57 23.513.5.6 1.2.9 1.9.9h3M8340 49h8.3c.6 0 1.1-.2 1.5-.6 1.3-1.1 4.6-3.2 9.4.2.4.3.9.4 1.4.4h2.7c.8 0 1.6.4 2.1 1.1l1.3 1.8 5.3-41.6 4.8 44.5 5.949-27.717c.4-1 1.3-1.6 2.4-1.6h3.3c.8 0 1.5-.4 2-1 2.1-2.7 8.89-36.278 11.551 23.617.5.6 1.2.9 1.9.9h3M8425 49h8.3c.6 0 1.1-.2 1.5-.6 1.3-1.1 4.6-3.2 9.4.2.4.3.9.4 1.4.4h2.7c.8 0 1.6.4 2.1 1.1l1.3 1.8 5.3-41.6 4.8 44.5 5.964-27.803c.4-1 1.3-1.6 2.4-1.6h3.3c.8 0 1.5-.4 2-1 2.1-2.7 8.894-36.133 11.536 23.703.5.6 1.2.9 1.9.9h3M8510 49h8.3c.6 0 1.1-.2 1.5-.6 1.3-1.1 4.6-3.2 9.4.2.4.3.9.4 1.4.4h2.7c.8 0 1.6.4 2.1 1.1l1.3 1.8 5.3-41.6 4.8 44.5 5.977-27.873c.4-1 1.3-1.6 2.4-1.6h3.3c.8 0 1.5-.4 2-1 2.1-2.7 8.896-36.015 11.523 23.773.5.6 1.2.9 1.9.9h3M8595 49h8.3c.6 0 1.1-.2 1.5-.6 1.3-1.1 4.6-3.2 9.4.2.4.3.9.4 1.4.4h2.7c.8 0 1.6.4 2.1 1.1l1.3 1.8 5.3-41.6 4.8 44.5 5.987-27.926c.4-1 1.3-1.6 2.4-1.6h3.3c.8 0 1.5-.4 2-1 2.1-2.7 8.897-35.925 11.513 23.826.5.6 1.2.9 1.9.9h3M8680 49h8.3c.6 0 1.1-.2 1.5-.6 1.3-1.1 4.6-3.2 9.4.2.4.3.9.4 1.4.4h2.7c.8 0 1.6.4 2.1 1.1l1.3 1.8 5.3-41.6 4.8 44.5 5.994-27.964c.4-1 1.3-1.6 2.4-1.6h3.3c.8 0 1.5-.4 2-1 2.1-2.7 8.898-35.861 11.506 23.864.5.6 1.2.9 1.9.9h3M8765 49h8.3c.6 0 1.1-.2 1.5-.6 1.3-1.1 4.6-3.2 9.4.2.4.3.9.4 1.4.4h2.7c.8 0 1.6.4 2.1 1.1l1.3 1.8 5.3-41.6 4.8 44.5 5.998-27.989c.4-1 1.3-1.6 2.4-1.6h3.3c.8 0 1.5-.4 2-1 2.1-2.7 8.9-35.819 11.502 23.889.5.6 1.2.9 1.9.9h3M8850 49h8.3c.6 0 1.1-.2 1.5-.6 1.3-1.1 4.6-3.2 9.4.2.4.3.9.4 1.4.4h2.7c.8 0 1.6.4 2.1 1.1l1.3 1.8 5.3-41.6 4.8 44.5 6-27.999c.4-1 1.3-1.6 2.4-1.6h3.3c.8 0 1.5-.4 2-1 2.1-2.7 8.9-35.802 11.5 23.899.5.6 1.2.9 1.9.9h3M8935 49h8.3c.6 0 1.1-.2 1.5-.6 1.3-1.1 4.6-3.2 9.4.2.4.3.9.4 1.4.4h2.7c.8 0 1.6.4 2.1 1.1l1.3 1.8 5.3-41.6 4.8 44.5 6-28c.4-1 1.3-1.6 2.4-1.6h3.3c.8 0 1.5-.4 2-1 2.1-2.7 8.9-35.8 11.5 23.9.5.6 1.2.9 1.9.9h3M9020 49h8.3c.6 0 1.1-.2 1.5-.6 1.3-1.1 4.6-3.2 9.4.2.4.3.9.4 1.4.4h2.7c.8 0 1.6.4 2.1 1.1l1.3 1.8 5.3-41.6 4.8 44.5 6-28c.4-1 1.3-1.6 2.4-1.6h3.3c.8 0 1.5-.4 2-1 2.1-2.7 8.9-35.8 11.5 23.9.5.6 1.2.9 1.9.9h3M9105 49h8.3c.6 0 1.1-.2 1.5-.6 1.3-1.1 4.6-3.2 9.4.2.4.3.9.4 1.4.4h2.7c.8 0 1.6.4 2.1 1.1l1.3 1.8 5.3-41.6 4.8 44.5 6-28c.4-1 1.3-1.6 2.4-1.6h3.3c.8 0 1.5-.4 2-1 2.1-2.7 8.9-35.8 11.5 23.9.5.6 1.2.9 1.9.9h3M9190 49h8.3c.6 0 1.1-.2 1.5-.6 1.3-1.1 4.6-3.2 9.4.2.4.3.9.4 1.4.4h2.7c.8 0 1.6.4 2.1 1.1l1.3 1.8 5.3-41.6 4.8 44.5 6-28c.4-1 1.3-1.6 2.4-1.6h3.3c.8 0 1.5-.4 2-1 2.1-2.7 8.9-35.8 11.5 23.9.5.6 1.2.9 1.9.9h3M9275 49h8.3c.6 0 1.1-.2 1.5-.6 1.3-1.1 4.6-3.2 9.4.2.4.3.9.4 1.4.4h2.7c.8 0 1.6.4 2.1 1.1l1.3 1.8 5.3-41.6 4.8 44.5 6-28c.4-1 1.3-1.6 2.4-1.6h3.3c.8 0 1.5-.4 2-1 2.1-2.7 8.9-35.8 11.5 23.9.5.6 1.2.9 1.9.9h3M9360 49h8.3c.6 0 1.1-.2 1.5-.6 1.3-1.1 4.6-3.2 9.4.2.4.3.9.4 1.4.4h2.7c.8 0 1.6.4 2.1 1.1l1.3 1.8 5.3-41.6 4.8 44.5 6-28c.4-1 1.3-1.6 2.4-1.6h3.3c.8 0 1.5-.4 2-1 2.1-2.7 8.9-35.8 11.5 23.9.5.6 1.2.9 1.9.9h3M9445 49h8.3c.6 0 1.1-.2 1.5-.6 1.3-1.1 4.6-3.2 9.4.2.4.3.9.4 1.4.4h2.7c.8 0 1.6.4 2.1 1.1l1.3 1.8 5.3-41.6 4.8 44.5 6-28c.4-1 1.3-1.6 2.4-1.6h3.3c.8 0 1.5-.4 2-1 2.1-2.7 8.9-35.8 11.5 23.9.5.6 1.2.9 1.9.9h3M9530 49h8.3c.6 0 1.1-.2 1.5-.6 1.3-1.1 4.6-3.2 9.4.2.4.3.9.4 1.4.4h2.7c.8 0 1.6.4 2.1 1.1l1.3 1.8 5.3-41.6 4.8 44.5 6-28c.4-1 1.3-1.6 2.4-1.6h3.3c.8 0 1.5-.4 2-1 2.1-2.7 8.9-35.8 11.5 23.9.5.6 1.2.9 1.9.9h3M9615 49h8.3c.6 0 1.1-.2 1.5-.6 1.3-1.1 4.6-3.2 9.4.2.4.3.9.4 1.4.4h2.7c.8 0 1.6.4 2.1 1.1l1.3 1.8 5.3-41.6 4.8 44.5 6-28c.4-1 1.3-1.6 2.4-1.6h3.3c.8 0 1.5-.4 2-1 2.1-2.7 8.9-35.8 11.5 23.9.5.6 1.2.9 1.9.9h3M9700 49h8.3c.6 0 1.1-.2 1.5-.6 1.3-1.1 4.6-3.2 9.4.2.4.3.9.4 1.4.4h2.7c.8 0 1.6.4 2.1 1.1l1.3 1.8 5.3-41.6 4.8 44.5 6-28c.4-1 1.3-1.6 2.4-1.6h3.3c.8 0 1.5-.4 2-1 2.1-2.7 8.9-35.8 11.5 23.9.5.6 1.2.9 1.9.9h3M9785 49h8.3c.6 0 1.1-.2 1.5-.6 1.3-1.1 4.6-3.2 9.4.2.4.3.9.4 1.4.4h2.7c.8 0 1.6.4 2.1 1.1l1.3 1.8 5.3-41.6 4.8 44.5 6-28c.4-1 1.3-1.6 2.4-1.6h3.3c.8 0 1.5-.4 2-1 2.1-2.7 8.9-35.8 11.5 23.9.5.6 1.2.9 1.9.9h3M9870 49h8.3c.6 0 1.1-.2 1.5-.6 1.3-1.1 4.6-3.2 9.4.2.4.3.9.4 1.4.4h2.7c.8 0 1.6.4 2.1 1.1l1.3 1.8 5.3-41.6 4.8 44.5 6-28c.4-1 1.3-1.6 2.4-1.6h3.3c.8 0 1.5-.4 2-1 2.1-2.7 8.9-35.8 11.5 23.9.5.6 1.2.9 1.9.9h3M9955 49h8.3c.6 0 1.1-.2 1.5-.6 1.3-1.1 4.6-3.2 9.4.2.4.3.9.4 1.4.4h2.7c.8 0 1.6.4 2.1 1.1l1.3 1.8 5.3-41.6 4.8 44.5 6-28c.4-1 1.3-1.6 2.4-1.6h3.3c.8 0 1.5-.4 2-1 2.1-2.7 8.9-35.8 11.5 23.9.5.6 1.2.9 1.9.9h3M10040 49h8.3c.6 0 1.1-.2 1.5-.6 1.3-1.1 4.6-3.2 9.4.2.4.3.9.4 1.4.4h2.7c.8 0 1.6.4 2.1 1.1l1.3 1.8 5.3-41.6 4.8 44.5 6-28c.4-1 1.3-1.6 2.4-1.6h3.3c.8 0 1.5-.4 2-1 2.1-2.7 8.9-35.8 11.5 23.9.5.6 1.2.9 1.9.9h3M10125 49h8.3c.6 0 1.1-.2 1.5-.6 1.3-1.1 4.6-3.2 9.4.2.4.3.9.4 1.4.4h2.7c.8 0 1.6.4 2.1 1.1l1.3 1.8 5.3-41.6 4.8 44.5 6-28c.4-1 1.3-1.6 2.4-1.6h3.3c.8 0 1.5-.4 2-1 2.1-2.7 8.9-35.8 11.5 23.9.5.6 1.2.9 1.9.9h3M10210 49h8.3c.6 0 1.1-.2 1.5-.6 1.3-1.1 4.6-3.2 9.4.2.4.3.9.4 1.4.4h2.7c.8 0 1.6.4 2.1 1.1l1.3 1.8 5.3-41.6 4.8 44.5 6-28c.4-1 1.3-1.6 2.4-1.6h3.3c.8 0 1.5-.4 2-1 2.1-2.7 8.9-35.8 11.5 23.9.5.6 1.2.9 1.9.9h3M10295 49h8.3c.6 0 1.1-.2 1.5-.6 1.3-1.1 4.6-3.2 9.4.2.4.3.9.4 1.4.4h2.7c.8 0 1.6.4 2.1 1.1l1.3 1.8 5.3-41.6 4.8 44.5 6-28c.4-1 1.3-1.6 2.4-1.6h3.3c.8 0 1.5-.4 2-1 2.1-2.7 8.9-35.8 11.5 23.9.5.6 1.2.9 1.9.9h3M10380 49h8.3c.6 0 1.1-.2 1.5-.6 1.3-1.1 4.6-3.2 9.4.2.4.3.9.4 1.4.4h2.7c.8 0 1.6.4 2.1 1.1l1.3 1.8 5.3-41.6 4.8 44.5 6-27.989c.401-1 1.301-1.6 2.401-1.6h3.3c.8 0 1.5-.4 2-1 2.1-2.7 8.898-35.793 11.499 23.889.5.6 1.2.9 1.9.9h3M10465 49h8.3c.6 0 1.1-.2 1.5-.6 1.3-1.1 4.6-3.2 9.4.2.4.3.9.4 1.4.4h2.7c.8 0 1.6.4 2.1 1.1l1.3 1.8 5.3-41.6 4.8 44.5 6.001-27.913c.403-.997 1.31-1.595 2.41-1.595h3.3c.8 0 1.5-.4 2-1 2.1-2.7 8.878-35.747 11.489 23.808.5.6 1.2.9 1.9.9h3M10550 49h8.3c.6 0 1.1-.2 1.5-.6 1.3-1.1 4.6-3.2 9.4.2.4.3.9.4 1.4.4h2.7c.8 0 1.6.4 2.1 1.1l1.3 1.8 5.3-41.6 4.8 44.5 6.002-27.755c.41-.991 1.33-1.586 2.43-1.586h3.3c.8 0 1.5-.4 2-1 2.1-2.7 8.838-35.649 11.468 23.641.5.6 1.2.9 1.9.9h3M10635 49h8.3c.6 0 1.1-.2 1.5-.6 1.3-1.1 4.6-3.2 9.4.2.4.3.9.4 1.4.4h2.7c.8 0 1.6.4 2.1 1.1l1.3 1.8 5.3-41.6 4.8 44.5 6.003-27.501c.422-.981 1.362-1.572 2.462-1.572h3.3c.8 0 1.5-.4 2-1 2.1-2.7 8.773-35.492 11.435 23.373.5.6 1.2.9 1.9.9h3M10720 49h8.3c.6 0 1.1-.2 1.5-.6 1.3-1.1 4.6-3.2 9.4.2.4.3.9.4 1.4.4h2.7c.8 0 1.6.4 2.1 1.1l1.3 1.8 5.3-41.6 4.8 44.5 6.005-27.138c.439-.967 1.407-1.55 2.507-1.55h3.3c.8 0 1.5-.4 2-1 2.1-2.7 8.682-35.268 11.388 22.988.5.6 1.2.9 1.9.9h3M10805 49h8.3c.6 0 1.1-.2 1.5-.6 1.3-1.1 4.6-3.2 9.4.2.4.3.9.4 1.4.4h2.7c.8 0 1.6.4 2.1 1.1l1.3 1.8 5.3-41.6 4.8 44.5 6.009-26.645c.46-.949 1.467-1.523 2.567-1.523h3.3c.8 0 1.5-.4 2-1 2.1-2.7 8.557-34.964 11.324 22.468.5.6 1.2.9 1.9.9h3M10890 49h8.3c.6 0 1.1-.2 1.5-.6 1.3-1.1 4.6-3.2 9.4.2.4.3.9.4 1.4.4h2.7c.8 0 1.6.4 2.1 1.1l1.3 1.8 5.3-41.6 4.8 44.5 6.013-26.002c.488-.924 1.546-1.486 2.646-1.486h3.3c.8 0 1.5-.4 2-1 2.1-2.7 8.394-34.568 11.241 21.788.5.6 1.2.9 1.9.9h3M10975 49h8.3c.6 0 1.1-.2 1.5-.6 1.3-1.1 4.6-3.2 9.4.2.4.3.9.4 1.4.4h2.7c.8 0 1.6.4 2.1 1.1l1.3 1.8 5.3-41.6 4.8 44.5 6.018-25.185c.525-.893 1.647-1.439 2.747-1.439h3.3c.8 0 1.5-.4 2-1 2.1-2.7 8.188-34.063 11.135 20.924.5.6 1.2.9 1.9.9h3M11060 49h8.3c.6 0 1.1-.2 1.5-.6 1.3-1.1 4.6-3.2 9.4.2.4.3.9.4 1.4.4h2.7c.8 0 1.6.4 2.1 1.1l1.3 1.8 5.3-41.6 4.8 44.5 6.024-24.168c.57-.854 1.773-1.381 2.873-1.381h3.3c.8 0 1.5-.4 2-1 2.1-2.7 7.93-33.435 11.003 19.849.5.6 1.2.9 1.9.9h3M11145 49h8.3c.6 0 1.1-.2 1.5-.6 1.3-1.1 4.6-3.2 9.4.2.4.3.9.4 1.4.4h2.7c.8 0 1.6.4 2.1 1.1l1.3 1.8 5.3-41.6 4.8 44.5 6.032-22.929c.625-.807 1.926-1.311 3.026-1.311h3.3c.8 0 1.5-.4 2-1 2.1-2.7 7.616-32.671 10.842 18.54.5.6 1.2.9 1.9.9h3M11230 49h8.3c.6 0 1.1-.2 1.5-.6 1.3-1.1 4.6-3.2 9.4.2.4.3.9.4 1.4.4h2.7c.8 0 1.6.4 2.1 1.1l1.3 1.8 5.3-41.6 4.8 44.5 6.041-21.46c.69-.751 2.108-1.227 3.208-1.227h3.3c.8 0 1.5-.4 2-1 2.1-2.7 7.244-31.764 10.651 16.987.5.6 1.2.9 1.9.9h3M11315 49h8.3c.6 0 1.1-.2 1.5-.6 1.3-1.1 4.6-3.2 9.4.2.4.3.9.4 1.4.4h2.7c.8 0 1.6.4 2.1 1.1l1.3 1.8 5.3-41.6 4.8 44.5 6.052-19.776c.764-.688 2.315-1.131 3.415-1.131h3.3c.8 0 1.5-.4 2-1 2.1-2.7 6.818-30.725 10.433 15.207.5.6 1.2.9 1.9.9h3M11400 49h8.3c.6 0 1.1-.2 1.5-.6 1.3-1.1 4.6-3.2 9.4.2.4.3.9.4 1.4.4h2.7c.8 0 1.6.4 2.1 1.1l1.3 1.8 5.3-41.6 4.8 44.5 6.064-17.928c.846-.617 2.543-1.026 3.643-1.026h3.3c.8 0 1.5-.4 2-1 2.1-2.7 6.35-29.585 10.193 13.254.5.6 1.2.9 1.9.9h3M11485 49h8.3c.6 0 1.1-.2 1.5-.6 1.3-1.1 4.6-3.2 9.4.2.4.3.9.4 1.4.4h2.7c.8 0 1.6.4 2.1 1.1l1.3 1.8 5.3-41.6 4.8 44.5 6.076-15.998c.932-.544 2.781-.916 3.881-.916h3.3c.8 0 1.5-.4 2-1 2.1-2.7 5.862-28.393 9.943 11.214.5.6 1.2.9 1.9.9h3M11570 49h8.3c.6 0 1.1-.2 1.5-.6 1.3-1.1 4.6-3.2 9.4.2.4.3.9.4 1.4.4h2.7c.8 0 1.6.4 2.1 1.1l1.3 1.8 5.3-41.6 4.8 44.5 6.088-14.076c1.017-.472 3.019-.807 4.119-.807h3.3c.8 0 1.5-.4 2-1 2.1-2.7 5.375-27.208 9.693 9.183.5.6 1.2.9 1.9.9h3M11655 49h8.3c.6 0 1.1-.2 1.5-.6 1.3-1.1 4.6-3.2 9.4.2.4.3.9.4 1.4.4h2.7c.8 0 1.6.4 2.1 1.1l1.3 1.8 5.3-41.6 4.8 44.5 6.1-12.239c1.098-.402 3.245-.702 4.345-.702h3.3c.8 0 1.5-.4 2-1 2.1-2.7 4.91-26.074 9.455 7.241.5.6 1.2.9 1.9.9h3M11740 49h8.3c.6 0 1.1-.2 1.5-.6 1.3-1.1 4.6-3.2 9.4.2.4.3.9.4 1.4.4h2.7c.8 0 1.6.4 2.1 1.1l1.3 1.8 5.3-41.6 4.8 44.5 6.111-10.532c1.173-.336 3.455-.605 4.555-.605h3.3c.8 0 1.5-.4 2-1 2.1-2.7 4.478-25.02 9.234 5.437.5.6 1.2.9 1.9.9h3M11825 49h8.3c.6 0 1.1-.2 1.5-.6 1.3-1.1 4.6-3.2 9.4.2.4.3.9.4 1.4.4h2.7c.8 0 1.6.4 2.1 1.1l1.3 1.8 5.3-41.6 4.8 44.5 6.12-8.973c1.243-.278 3.649-.517 4.749-.517h3.3c.8 0 1.5-.4 2-1 2.1-2.7 4.083-24.059 9.031 3.79.5.6 1.2.9 1.9.9h3M11910 49h8.3c.6 0 1.1-.2 1.5-.6 1.3-1.1 4.6-3.2 9.4.2.4.3.9.4 1.4.4h2.7c.8 0 1.6.4 2.1 1.1l1.3 1.8 5.3-41.6 4.8 44.5 6.129-7.565c1.306-.224 3.822-.436 4.922-.436h3.3c.8 0 1.5-.4 2-1 2.1-2.7 3.727-23.19 8.849 2.301.5.6 1.2.9 1.9.9h3M11995 49h8.3c.6 0 1.1-.2 1.5-.6 1.3-1.1 4.6-3.2 9.4.2.4.3.9.4 1.4.4h2.7c.8 0 1.6.4 2.1 1.1l1.3 1.8 5.3-41.6 4.8 44.5 6.137-6.299c1.362-.176 3.979-.364 5.079-.364h3.3c.8 0 1.5-.4 2-1 2.1-2.7 3.406-22.409 8.684.963.5.6 1.2.9 1.9.9h3M12080 49h8.3c.6 0 1.1-.2 1.5-.6 1.3-1.1 4.6-3.2 9.4.2.4.3.9.4 1.4.4h2.7c.8 0 1.6.4 2.1 1.1l1.3 1.8 5.3-41.6 4.8 44.5 6.145-5.163c1.411-.132 4.118-.299 5.218-.299h3.3c.8 0 1.5-.4 2-1 2.1-2.7 3.118-21.707 8.537-.238.5.6 1.2.9 1.9.9h3M12165 49h8.3c.6 0 1.1-.2 1.5-.6 1.3-1.1 4.6-3.2 9.4.2.4.3.9.4 1.4.4h2.7c.8 0 1.6.4 2.1 1.1l1.3 1.8 5.3-41.6 4.8 44.5 6.151-4.143c1.457-.094 4.244-.241 5.344-.241h3.3c.8 0 1.5-.4 2-1 2.1-2.7 2.861-21.078 8.405-1.316.5.6 1.2.9 1.9.9h3M12250 49h8.3c.6 0 1.1-.2 1.5-.6 1.3-1.1 4.6-3.2 9.4.2.4.3.9.4 1.4.4h2.7c.8 0 1.6.4 2.1 1.1l1.3 1.8 5.3-41.6 4.8 44.5 6.157-3.228c1.497-.059 4.357-.189 5.457-.189h3.3c.8 0 1.5-.4 2-1 2.1-2.7 2.629-20.513 8.286-2.283.5.6 1.2.9 1.9.9h3M12335 49h8.3c.6 0 1.1-.2 1.5-.6 1.3-1.1 4.6-3.2 9.4.2.4.3.9.4 1.4.4h2.7c.8 0 1.6.4 2.1 1.1l1.3 1.8 5.3-41.6 4.8 44.5 6.162-2.406c1.534-.028 4.459-.142 5.559-.142h3.3c.8 0 1.5-.4 2-1 2.1-2.7 2.42-20.006 8.179-3.152.5.6 1.2.9 1.9.9h3M12420 49h8.3c.6 0 1.1-.2 1.5-.6 1.3-1.1 4.6-3.2 9.4.2.4.3.9.4 1.4.4h2.7c.8 0 1.6.4 2.1 1.1l1.3 1.8 5.3-41.6 4.8 44.5 6.167-1.667c1.566 0 4.55-.1 5.65-.1h3.3c.8 0 1.5-.4 2-1 2.1-2.7 2.233-19.55 8.083-3.933.5.6 1.2.9 1.9.9h3M12505 49h8.3c.6 0 1.1-.2 1.5-.6 1.3-1.1 4.6-3.2 9.4.2.4.3.9.4 1.4.4h2.7c.8 0 1.6.4 2.1 1.1l1.3 1.8 5.3-41.6 4.8 44.5 6.171-1.002c1.596.025 4.632-.063 5.732-.063h3.3c.8 0 1.5-.4 2-1 2.1-2.7 2.065-19.14 7.997-4.635.5.6 1.2.9 1.9.9h3M12590 49h8.3c.6 0 1.1-.2 1.5-.6 1.3-1.1 4.6-3.2 9.4.2.4.3.9.4 1.4.4h2.7c.8 0 1.6.4 2.1 1.1l1.3 1.8 5.3-41.6 4.8 44.5 6.175-.405c1.622.048 4.705-.028 5.805-.028h3.3c.8 0 1.5-.4 2-1 2.1-2.7 1.914-18.771 7.92-5.267.5.6 1.2.9 1.9.9h3M12675 49h8.3c.6 0 1.1-.2 1.5-.6 1.3-1.1 4.6-3.2 9.4.2.4.3.9.4 1.4.4h2.7c.8 0 1.6.4 2.1 1.1l1.3 1.8 5.3-41.6 4.8 44.5 6.178.132c1.646.069 4.772.003 5.872.003h3.3c.8 0 1.5-.4 2-1 2.1-2.7 1.778-18.44 7.85-5.835.5.6 1.2.9 1.9.9h3M12760 49h8.3c.6 0 1.1-.2 1.5-.6 1.3-1.1 4.6-3.2 9.4.2.4.3.9.4 1.4.4h2.7c.8 0 1.6.4 2.1 1.1l1.3 1.8 5.3-41.6 4.8 44.5 6.181.615c1.668.087 4.832.03 5.932.03h3.3c.8 0 1.5-.4 2-1 2.1-2.7 1.655-18.142 7.787-6.345.5.6 1.2.9 1.9.9h3M12845 49h8.3c.6 0 1.1-.2 1.5-.6 1.3-1.1 4.6-3.2 9.4.2.4.3.9.4 1.4.4h2.7c.8 0 1.6.4 2.1 1.1l1.3 1.8 5.3-41.6 4.8 44.5 6.184 1.048c1.687.103 4.885.054 5.985.054h3.3c.8 0 1.5-.4 2-1 2.1-2.7 1.546-17.875 7.731-6.802.5.6 1.2.9 1.9.9h3M12930 49h8.3c.6 0 1.1-.2 1.5-.6 1.3-1.1 4.6-3.2 9.4.2.4.3.9.4 1.4.4h2.7c.8 0 1.6.4 2.1 1.1l1.3 1.8 5.3-41.6 4.8 44.5 6.186 1.435c1.704.118 4.933.077 6.033.077h3.3c.8 0 1.5-.4 2-1 2.1-2.7 1.448-17.636 7.681-7.212.5.6 1.2.9 1.9.9h3M13015 49h8.3c.6 0 1.1-.2 1.5-.6 1.3-1.1 4.6-3.2 9.4.2.4.3.9.4 1.4.4h2.7c.8 0 1.6.4 2.1 1.1l1.3 1.8 5.3-41.6 4.8 44.5 6.188 1.781c1.72.131 4.976.096 6.076.096h3.3c.8 0 1.5-.4 2-1 2.1-2.7 1.361-17.423 7.636-7.577.5.6 1.2.9 1.9.9h3M13100 49h8.3c.6 0 1.1-.2 1.5-.6 1.3-1.1 4.6-3.2 9.4.2.4.3.9.4 1.4.4h2.7c.8 0 1.6.4 2.1 1.1l1.3 1.8 5.3-41.6 4.8 44.5 6.19 2.088c1.733.143 5.014.114 6.114.114h3.3c.8 0 1.5-.4 2-1 2.1-2.7 1.283-17.233 7.596-7.902.5.6 1.2.9 1.9.9h3M13185 49h8.3c.6 0 1.1-.2 1.5-.6 1.3-1.1 4.6-3.2 9.4.2.4.3.9.4 1.4.4h2.7c.8 0 1.6.4 2.1 1.1l1.3 1.8 5.3-41.6 4.8 44.5 6.192 2.36c1.745.153 5.047.129 6.147.129h3.3c.8 0 1.5-.4 2-1 2.1-2.7 1.214-17.065 7.561-8.189.5.6 1.2.9 1.9.9h3M13270 49h8.3c.6 0 1.1-.2 1.5-.6 1.3-1.1 4.6-3.2 9.4.2.4.3.9.4 1.4.4h2.7c.8 0 1.6.4 2.1 1.1l1.3 1.8 5.3-41.6 4.8 44.5 6.194 2.599c1.755.162 5.076.143 6.176.143h3.3c.8 0 1.5-.4 2-1 2.1-2.7 1.154-16.918 7.53-8.442.5.6 1.2.9 1.9.9h3M13355 49h8.3c.6 0 1.1-.2 1.5-.6 1.3-1.1 4.6-3.2 9.4.2.4.3.9.4 1.4.4h2.7c.8 0 1.6.4 2.1 1.1l1.3 1.8 5.3-41.6 4.8 44.5 6.195 2.808c1.765.17 5.102.154 6.202.154h3.3c.8 0 1.5-.4 2-1 2.1-2.7 1.101-16.788 7.503-8.662.5.6 1.2.9 1.9.9h3M13440 49h8.3c.6 0 1.1-.2 1.5-.6 1.3-1.1 4.6-3.2 9.4.2.4.3.9.4 1.4.4h2.7c.8 0 1.6.4 2.1 1.1l1.3 1.8 5.3-41.6 4.8 44.5 6.196 2.988c1.773.177 5.125.165 6.225.165h3.3c.8 0 1.5-.4 2-1 2.1-2.7 1.055-16.678 7.479-8.853.5.6 1.2.9 1.9.9h3M13525 49h8.3c.6 0 1.1-.2 1.5-.6 1.3-1.1 4.6-3.2 9.4.2.4.3.9.4 1.4.4h2.7c.8 0 1.6.4 2.1 1.1l1.3 1.8 5.3-41.6 4.8 44.5 6.197 3.142c1.78.182 5.144.174 6.244.174h3.3c.8 0 1.5-.4 2-1 2.1-2.7 1.016-16.583 7.459-9.016.5.6 1.2.9 1.9.9h3M13610 49h8.3c.6 0 1.1-.2 1.5-.6 1.3-1.1 4.6-3.2 9.4.2.4.3.9.4 1.4.4h2.7c.8 0 1.6.4 2.1 1.1l1.3 1.8 5.3-41.6 4.8 44.5 6.198 3.271c1.785.187 5.159.181 6.259.181h3.3c.8 0 1.5-.4 2-1 2.1-2.7.984-16.503 7.443-9.152.5.6 1.2.9 1.9.9h3M13695 49h8.3c.6 0 1.1-.2 1.5-.6 1.3-1.1 4.6-3.2 9.4.2.4.3.9.4 1.4.4h2.7c.8 0 1.6.4 2.1 1.1l1.3 1.8 5.3-41.6 4.8 44.5 6.199 3.376c1.79.192 5.172.188 6.272.188h3.3c.8 0 1.5-.4 2-1 2.1-2.7.957-16.438 7.429-9.264.5.6 1.2.9 1.9.9h3M13780 49h8.3c.6 0 1.1-.2 1.5-.6 1.3-1.1 4.6-3.2 9.4.2.4.3.9.4 1.4.4h2.7c.8 0 1.6.4 2.1 1.1l1.3 1.8 5.3-41.6 4.8 44.5 6.199 3.46c1.794.195 5.183.192 6.283.192h3.3c.8 0 1.5-.4 2-1 2.1-2.7.935-16.386 7.418-9.352.5.6 1.2.9 1.9.9h3M13865 49h8.3c.6 0 1.1-.2 1.5-.6 1.3-1.1 4.6-3.2 9.4.2.4.3.9.4 1.4.4h2.7c.8 0 1.6.4 2.1 1.1l1.3 1.8 5.3-41.6 4.8 44.5 6.2 3.523c1.796.197 5.19.196 6.29.196h3.3c.8 0 1.5-.4 2-1 2.1-2.7.919-16.347 7.41-9.419.5.6 1.2.9 1.9.9h3M13950 49h8.3c.6 0 1.1-.2 1.5-.6 1.3-1.1 4.6-3.2 9.4.2.4.3.9.4 1.4.4h2.7c.8 0 1.6.4 2.1 1.1l1.3 1.8 5.3-41.6 4.8 44.5 6.2 3.567c1.798.199 5.196.198 6.296.198h3.3c.8 0 1.5-.4 2-1 2.1-2.7.908-16.32 7.404-9.465.5.6 1.2.9 1.9.9h3M14035 49h8.3c.6 0 1.1-.2 1.5-.6 1.3-1.1 4.6-3.2 9.4.2.4.3.9.4 1.4.4h2.7c.8 0 1.6.4 2.1 1.1l1.3 1.8 5.3-41.6 4.8 44.5 6.2 3.592c1.8.2 5.199.2 6.299.2h3.3c.8 0 1.5-.4 2-1 2.1-2.7.902-16.305 7.401-9.492.5.6 1.2.9 1.9.9h3M14120 49h8.3c.6 0 1.1-.2 1.5-.6 1.3-1.1 4.6-3.2 9.4.2.4.3.9.4 1.4.4h2.7c.8 0 1.6.4 2.1 1.1l1.3 1.8 5.3-41.6 4.8 44.5 6.2 3.6c1.8.2 5.2.2 6.3.2h3.3c.8 0 1.5-.4 2-1 2.1-2.7.9-16.3 7.4-9.5.5.6 1.2.9 1.9.9h3M14205 49h8.3c.6 0 1.1-.2 1.5-.6 1.3-1.1 4.6-3.2 9.4.2.4.3.9.4 1.4.4h2.7c.8 0 1.6.4 2.1 1.1l1.3 1.8 5.3-41.6 4.8 44.5 6.2 3.6c1.8.2 5.2.2 6.3.2h3.3c.8 0 1.5-.4 2-1 2.1-2.7.9-16.3 7.4-9.5.5.6 1.2.9 1.9.9h3M14290 49h8.3c.6 0 1.1-.2 1.5-.6 1.3-1.1 4.6-3.2 9.4.2.4.3.9.4 1.4.4h2.7c.8 0 1.6.4 2.1 1.1l1.3 1.8 5.3-41.6 4.8 44.5 6.2 3.6c1.8.2 5.2.2 6.3.2h3.3c.8 0 1.5-.4 2-1 2.1-2.7.9-16.3 7.4-9.5.5.6 1.2.9 1.9.9h3M14375 49h8.3c.6 0 1.1-.2 1.5-.6 1.3-1.1 4.6-3.2 9.4.2.4.3.9.4 1.4.4h2.7c.8 0 1.6.4 2.1 1.1l1.3 1.8 5.3-41.6 4.8 44.5 6.2 3.6c1.8.2 5.2.2 6.3.2h3.3c.8 0 1.5-.4 2-1 2.1-2.7.9-16.3 7.4-9.5.5.6 1.2.9 1.9.9h3M14460 49h8.3c.6 0 1.1-.2 1.5-.6 1.3-1.1 4.6-3.2 9.4.2.4.3.9.4 1.4.4h2.7c.8 0 1.6.4 2.1 1.1l1.3 1.8 5.3-41.6 4.8 44.5 6.2 3.6c1.8.2 5.2.2 6.3.2h3.3c.8 0 1.5-.4 2-1 2.1-2.7.9-16.3 7.4-9.5.5.6 1.2.9 1.9.9h3M14545 49h8.3c.6 0 1.1-.2 1.5-.6 1.3-1.1 4.6-3.2 9.4.2.4.3.9.4 1.4.4h2.7c.8 0 1.6.4 2.1 1.1l1.3 1.8 5.3-41.6 4.8 44.5 6.2 3.6c1.8.2 5.2.2 6.3.2h3.3c.8 0 1.5-.4 2-1 2.1-2.7.9-16.3 7.4-9.5.5.6 1.2.9 1.9.9h3M14630 49h8.3c.6 0 1.1-.2 1.5-.6 1.3-1.1 4.6-3.2 9.4.2.4.3.9.4 1.4.4h2.7c.8 0 1.6.4 2.1 1.1l1.3 1.8 5.3-41.6 4.8 44.5 6.2 3.6c1.8.2 5.2.2 6.3.2h3.3c.8 0 1.5-.4 2-1 2.1-2.7.9-16.3 7.4-9.5.5.6 1.2.9 1.9.9h3M14715 49h8.3c.6 0 1.1-.2 1.5-.6 1.3-1.1 4.6-3.2 9.4.2.4.3.9.4 1.4.4h2.7c.8 0 1.6.4 2.1 1.1l1.3 1.8 5.3-41.6 4.8 44.5 6.2 3.6c1.8.2 5.2.2 6.3.2h3.3c.8 0 1.5-.4 2-1 2.1-2.7.9-16.3 7.4-9.5.5.6 1.2.9 1.9.9h3M14800 49h8.3c.6 0 1.1-.2 1.5-.6 1.3-1.1 4.6-3.2 9.4.2.4.3.9.4 1.4.4h2.7c.8 0 1.6.4 2.1 1.1l1.3 1.8 5.3-41.6 4.8 44.5 6.2 3.6c1.8.2 5.2.2 6.3.2h3.3c.8 0 1.5-.4 2-1 2.1-2.7.9-16.3 7.4-9.5.5.6 1.2.9 1.9.9h3M14885 49h8.3c.6 0 1.1-.2 1.5-.6 1.3-1.1 4.6-3.2 9.4.2.4.3.9.4 1.4.4h2.7c.8 0 1.6.4 2.1 1.1l1.3 1.8 5.3-41.6 4.8 44.5 6.2 3.6c1.8.2 5.2.2 6.3.2h3.3c.8 0 1.5-.4 2-1 2.1-2.7.9-16.3 7.4-9.5.5.6 1.2.9 1.9.9h3M14970 49h8.3c.6 0 1.1-.2 1.5-.6 1.3-1.1 4.6-3.2 9.4.2.4.3.9.4 1.4.4h2.7c.8 0 1.6.4 2.1 1.1l1.3 1.8 5.3-41.6 4.8 44.5 6.2 3.6c1.8.2 5.2.2 6.3.2h3.3c.8 0 1.5-.4 2-1 2.1-2.7.9-16.3 7.4-9.5.5.6 1.2.9 1.9.9h3M15055 49h8.3c.6 0 1.1-.2 1.5-.6 1.3-1.1 4.6-3.2 9.4.2.4.3.9.4 1.4.4h2.7c.8 0 1.6.4 2.1 1.1l1.3 1.8 5.3-41.6 4.8 44.5 6.2 3.6c1.8.2 5.2.2 6.3.2h3.3c.8 0 1.5-.4 2-1 2.1-2.7.9-16.3 7.4-9.5.5.6 1.2.9 1.9.9h3M15140 49h8.3c.6 0 1.1-.2 1.5-.6 1.3-1.1 4.6-3.2 9.4.2.4.3.9.4 1.4.4h2.7c.8 0 1.6.4 2.1 1.1l1.3 1.8 5.3-41.6 4.8 44.5 6.2 3.6c1.8.2 5.2.2 6.3.2h3.3c.8 0 1.5-.4 2-1 2.1-2.7.9-16.3 7.4-9.5.5.6 1.2.9 1.9.9h3M15225 49h8.3c.6 0 1.1-.2 1.5-.6 1.3-1.1 4.6-3.2 9.4.2.4.3.9.4 1.4.4h2.7c.8 0 1.6.4 2.1 1.1l1.3 1.8 5.3-41.6 4.8 44.5 6.2 3.6c1.8.2 5.2.2 6.3.2h3.3c.8 0 1.5-.4 2-1 2.1-2.7.9-16.3 7.4-9.5.5.6 1.2.9 1.9.9h3M15310 49h8.3c.6 0 1.1-.2 1.5-.6 1.3-1.1 4.6-3.2 9.4.2.4.3.9.4 1.4.4h2.7c.8 0 1.6.4 2.1 1.1l1.3 1.8 5.3-41.6 4.8 44.5 6.2 3.6c1.8.2 5.2.2 6.3.2h3.3c.8 0 1.5-.4 2-1 2.1-2.7.9-16.3 7.4-9.5.5.6 1.2.9 1.9.9h3M15395 49h8.3c.6 0 1.1-.2 1.5-.6 1.3-1.1 4.6-3.2 9.4.2.4.3.9.4 1.4.4h2.7c.8 0 1.6.4 2.1 1.1l1.3 1.8 5.3-41.6 4.8 44.5 6.2 3.6c1.8.2 5.2.2 6.3.2h3.3c.8 0 1.5-.4 2-1 2.1-2.7.9-16.3 7.4-9.5.5.6 1.2.9 1.9.9h3M15480 49h8.3c.6 0 1.1-.2 1.5-.6 1.3-1.1 4.6-3.2 9.4.2.4.3.9.4 1.4.4h2.7c.8 0 1.6.4 2.1 1.1l1.3 1.8 5.3-41.6 4.8 44.5 6.2 3.6c1.8.2 5.2.2 6.3.2h3.3c.8 0 1.5-.4 2-1 2.1-2.7.9-16.299 7.4-9.5.5.6 1.2.9 1.9.9h3M15565 49h8.291c.6 0 1.1-.2 1.5-.6 1.3-1.1 4.6-3.2 9.4.2.4.3.9.4 1.4.4h2.7c.8 0 1.6.4 2.1 1.1l1.3 1.8 5.309-41.6 4.808 44.491 6.194 3.597c1.8.2 5.202.216 6.302.216h3.3c.8 0 1.5-.4 2-1 2.104-2.707.904-16.286 7.396-9.504.502.598 1.201.898 1.9.898h3M15650 49h8.27c.6 0 1.1-.2 1.5-.6 1.3-1.1 4.6-3.2 9.4.2.4.3.9.4 1.4.4h2.7c.8 0 1.6.4 2.1 1.1l1.3 1.8 5.33-41.6 4.828 44.471 6.18 3.588c1.8.2 5.204.253 6.304.253h3.3c.8 0 1.5-.4 2-1 2.117-2.722.916-16.252 7.388-9.511.505.593 1.202.892 1.9.892h3M15735 49h8.235c.6 0 1.1-.2 1.5-.6 1.3-1.1 4.6-3.2 9.4.2.4.3.9.4 1.4.4h2.7c.8 0 1.6.4 2.1 1.1l1.3 1.8 5.365-41.6 4.861 44.436 6.156 3.574c1.8.2 5.209.316 6.309.316h3.3c.8 0 1.5-.4 2-1 2.137-2.747.935-16.196 7.374-9.525.512.586 1.204.883 1.9.883h3M15820 49h8.183c.6 0 1.1-.2 1.5-.6 1.3-1.1 4.6-3.2 9.4.2.4.3.9.4 1.4.4h2.7c.8 0 1.6.4 2.1 1.1l1.3 1.8 5.417-41.6 4.91 44.385 6.12 3.553c1.8.2 5.217.409 6.317.409h3.3c.8 0 1.5-.4 2-1 2.166-2.785.963-16.113 7.353-9.545.521.575 1.207.87 1.9.87h3M15905 49h8.111c.6 0 1.1-.2 1.5-.6 1.3-1.1 4.6-3.2 9.4.2.4.3.9.4 1.4.4h2.7c.8 0 1.6.4 2.1 1.1l1.3 1.8 5.489-41.6 4.977 44.315 6.072 3.525c1.8.2 5.226.535 6.326.535h3.3c.8 0 1.5-.4 2-1 2.206-2.835 1.002-15.998 7.325-9.571.534.558 1.211.851 1.9.851h3M15990 49h8.017c.6 0 1.1-.2 1.5-.6 1.3-1.1 4.6-3.2 9.4.2.4.3.9.4 1.4.4h2.7c.8 0 1.6.4 2.1 1.1l1.3 1.8 5.583-41.6 5.066 44.223 6.008 3.487c1.8.2 5.239.703 6.339.703h3.3c.8 0 1.5-.4 2-1 2.259-2.904 1.053-15.847 7.287-9.607.551.537 1.217.826 1.9.826h3M16075 49h7.896c.6 0 1.1-.2 1.5-.6 1.3-1.1 4.6-3.2 9.4.2.4.3.9.4 1.4.4h2.7c.8 0 1.6.4 2.1 1.1l1.3 1.8 5.704-41.6 5.179 44.105 5.926 3.438c1.8.2 5.256.918 6.356.918h3.3c.8 0 1.5-.4 2-1 2.326-2.99 1.118-15.654 7.239-9.653.573.511 1.224.795 1.9.795h3M16160 49h7.745c.6 0 1.1-.2 1.5-.6 1.3-1.1 4.6-3.2 9.4.2.4.3.9.4 1.4.4h2.7c.8 0 1.6.4 2.1 1.1l1.3 1.8 5.855-41.6 5.321 43.957 5.823 3.378c1.8.2 5.278 1.187 6.378 1.187h3.3c.8 0 1.5-.4 2-1 2.41-3.099 1.199-15.413 7.178-9.711.6.478 1.233.756 1.9.756h3M16245 49h7.56c.6 0 1.1-.2 1.5-.6 1.3-1.1 4.6-3.2 9.4.2.4.3.9.4 1.4.4h2.7c.8 0 1.6.4 2.1 1.1l1.3 1.8 6.04-41.6 5.495 43.775 5.697 3.304c1.8.2 5.304 1.517 6.404 1.517h3.3c.8 0 1.5-.4 2-1 2.514-3.233 1.299-15.116 7.104-9.781.633.437 1.244.707 1.9.707h3M16330 49h7.339c.6 0 1.1-.2 1.5-.6 1.3-1.1 4.6-3.2 9.4.2.4.3.9.4 1.4.4h2.7c.8 0 1.6.4 2.1 1.1l1.3 1.8 6.261-41.6 5.704 43.558 5.546 3.215c1.8.2 5.335 1.912 6.435 1.912h3.3c.8 0 1.5-.4 2-1 2.638-3.393 1.419-14.762 7.015-9.866.673.389 1.258.65 1.9.65h3M16415 49h7.082c.6 0 1.1-.2 1.5-.6 1.3-1.1 4.6-3.2 9.4.2.4.3.9.4 1.4.4h2.7c.8 0 1.6.4 2.1 1.1l1.3 1.8 6.518-41.6 5.945 43.306 5.372 3.113c1.8.2 5.37 2.368 6.47 2.368h3.3c.8 0 1.5-.4 2-1 2.782-3.577 1.558-14.351 6.913-9.963.719.332 1.273.584 1.9.584h3M16500 49h6.796c.6 0 1.1-.2 1.5-.6 1.3-1.1 4.6-3.2 9.4.2.4.3.9.4 1.4.4h2.7c.8 0 1.6.4 2.1 1.1l1.3 1.8 6.804-41.6 6.214 43.026 5.177 2.999c1.8.2 5.411 2.877 6.511 2.877h3.3c.8 0 1.5-.4 2-1 2.942-3.783 1.712-13.894 6.798-10.072.771.269 1.29.509 1.9.509h3M16585 49h6.493c.6 0 1.1-.2 1.5-.6 1.3-1.1 4.6-3.2 9.4.2.4.3.9.4 1.4.4h2.7c.8 0 1.6.4 2.1 1.1l1.3 1.8 7.107-41.6 6.499 42.729 4.971 2.877c1.8.2 5.453 3.417 6.553 3.417h3.3c.8 0 1.5-.4 2-1 3.112-4.001 1.876-13.409 6.677-10.187.825.203 1.308.43 1.9.43h3M16670 49h6.187c.6 0 1.1-.2 1.5-.6 1.3-1.1 4.6-3.2 9.4.2.4.3.9.4 1.4.4h2.7c.8 0 1.6.4 2.1 1.1l1.3 1.8 7.413-41.6 6.786 42.429 4.763 2.755c1.8.2 5.496 3.961 6.596 3.961h3.3c.8 0 1.5-.4 2-1 3.283-4.221 2.041-12.919 6.555-10.303.88.135 1.327.351 1.9.351h3M16755 49h5.891c.6 0 1.1-.2 1.5-.6 1.3-1.1 4.6-3.2 9.4.2.4.3.9.4 1.4.4h2.7c.8 0 1.6.4 2.1 1.1l1.3 1.8 7.709-41.6 7.064 42.14 4.562 2.636c1.8.2 5.537 4.487 6.637 4.487h3.3c.8 0 1.5-.4 2-1 3.449-4.434 2.201-12.446 6.437-10.415.934.07 1.345.274 1.9.274h3M16840 49h5.615c.6 0 1.1-.2 1.5-.6 1.3-1.1 4.6-3.2 9.4.2.4.3.9.4 1.4.4h2.7c.8 0 1.6.4 2.1 1.1l1.3 1.8 7.985-41.6 7.324 41.868 4.374 2.526c1.8.2 5.576 4.98 6.676 4.98h3.3c.8 0 1.5-.4 2-1 3.604-4.633 2.35-12.003 6.326-10.52.983.009 1.361.202 1.9.202h3M16925 49h5.361c.6 0 1.1-.2 1.5-.6 1.3-1.1 4.6-3.2 9.4.2.4.3.9.4 1.4.4h2.7c.8 0 1.6.4 2.1 1.1l1.3 1.8 8.239-41.6 7.563 41.62 4.201 2.424c1.8.2 5.612 5.432 6.712 5.432h3.3c.8 0 1.5-.4 2-1 3.746-4.817 2.487-11.598 6.224-10.617 1.029-.047 1.376.136 1.9.136h3M17010 49h5.131c.6 0 1.1-.2 1.5-.6 1.3-1.1 4.6-3.2 9.4.2.4.3.9.4 1.4.4h2.7c.8 0 1.6.4 2.1 1.1l1.3 1.8 8.469-41.6 7.779 41.394 4.045 2.333c1.8.2 5.644 5.841 6.744 5.841h3.3c.8 0 1.5-.4 2-1 3.874-4.982 2.611-11.23 6.132-10.705 1.07-.097 1.39.076 1.9.076h3M17095 49h4.924c.6 0 1.1-.2 1.5-.6 1.3-1.1 4.6-3.2 9.4.2.4.3.9.4 1.4.4h2.7c.8 0 1.6.4 2.1 1.1l1.3 1.8 8.676-41.6 7.973 41.192 3.905 2.249c1.8.2 5.672 6.209 6.772 6.209h3.3c.8 0 1.5-.4 2-1 3.991-5.13 2.723-10.898 6.05-10.782 1.108-.143 1.403.022 1.9.022h3M17180 49h4.738c.6 0 1.1-.2 1.5-.6 1.3-1.1 4.6-3.2 9.4.2.4.3.9.4 1.4.4h2.7c.8 0 1.6.4 2.1 1.1l1.3 1.8 8.862-41.6 8.148 41.01 3.778 2.175c1.8.2 5.699 6.54 6.799 6.54h3.3c.8 0 1.5-.4 2-1 4.094-5.265 2.823-10.602 5.975-10.854 1.141-.183 1.414-.026 1.9-.026h3M17265 49h4.572c.6 0 1.1-.2 1.5-.6 1.3-1.1 4.6-3.2 9.4.2.4.3.9.4 1.4.4h2.7c.8 0 1.6.4 2.1 1.1l1.3 1.8 9.028-41.6 8.305 40.846 3.664 2.109c1.8.2 5.722 6.836 6.822 6.836h3.3c.8 0 1.5-.4 2-1 4.188-5.384 2.914-10.335 5.909-10.916 1.171-.221 1.424-.07 1.9-.07h3M17350 49h4.422c.6 0 1.1-.2 1.5-.6 1.3-1.1 4.6-3.2 9.4.2.4.3.9.4 1.4.4h2.7c.8 0 1.6.4 2.1 1.1l1.3 1.8 9.178-41.6 8.445 40.7 3.563 2.049c1.8.2 5.743 7.102 6.843 7.102h3.3c.8 0 1.5-.4 2-1 4.272-5.492 2.994-10.095 5.849-10.973 1.198-.254 1.433-.109 1.9-.109h3M17435 49h4.288c.6 0 1.1-.2 1.5-.6 1.3-1.1 4.6-3.2 9.4.2.4.3.9.4 1.4.4h2.7c.8 0 1.6.4 2.1 1.1l1.3 1.8 9.312-41.6 8.571 40.568 3.472 1.995c1.8.2 5.762 7.342 6.862 7.342h3.3c.8 0 1.5-.4 2-1 4.347-5.589 3.066-9.881 5.795-11.025 1.222-.282 1.441-.143 1.9-.143h3M17520 49h4.167c.6 0 1.1-.2 1.5-.6 1.3-1.1 4.6-3.2 9.4.2.4.3.9.4 1.4.4h2.7c.8 0 1.6.4 2.1 1.1l1.3 1.8 9.433-41.6 8.685 40.45 3.39 1.947c1.8.2 5.778 7.556 6.878 7.556h3.3c.8 0 1.5-.4 2-1 4.415-5.676 3.132-9.687 5.747-11.07 1.244-.31 1.448-.175 1.9-.175h3M17605 49h4.059c.6 0 1.1-.2 1.5-.6 1.3-1.1 4.6-3.2 9.4.2.4.3.9.4 1.4.4h2.7c.8 0 1.6.4 2.1 1.1l1.3 1.8 9.541-41.6 8.787 40.343 3.316 1.904c1.8.2 5.794 7.75 6.894 7.75h3.3c.8 0 1.5-.4 2-1 4.475-5.754 3.19-9.514 5.703-11.112 1.263-.333 1.454-.203 1.9-.203h3M17690 49h3.961c.6 0 1.1-.2 1.5-.6 1.3-1.1 4.6-3.2 9.4.2.4.3.9.4 1.4.4h2.7c.8 0 1.6.4 2.1 1.1l1.3 1.8 9.639-41.6 8.879 40.248 3.249 1.864c1.8.2 5.808 7.924 6.908 7.924h3.3c.8 0 1.5-.4 2-1 4.529-5.824 3.243-9.358 5.664-11.149 1.281-.355 1.46-.228 1.9-.228h3M17775 49h3.873c.6 0 1.1-.2 1.5-.6 1.3-1.1 4.6-3.2 9.4.2.4.3.9.4 1.4.4h2.7c.8 0 1.6.4 2.1 1.1l1.3 1.8 9.727-41.6 8.961 40.162 3.19 1.829c1.8.2 5.82 8.08 6.92 8.08h3.3c.8 0 1.5-.4 2-1 4.579-5.888 3.29-9.217 5.629-11.182 1.297-.374 1.466-.251 1.9-.251h3M17860 49h3.794c.6 0 1.1-.2 1.5-.6 1.3-1.1 4.6-3.2 9.4.2.4.3.9.4 1.4.4h2.7c.8 0 1.6.4 2.1 1.1l1.3 1.8 9.806-41.6 9.035 40.084 3.136 1.798c1.8.2 5.831 8.22 6.931 8.22h3.3c.8 0 1.5-.4 2-1 4.623-5.944 3.333-9.091 5.598-11.212 1.311-.391 1.47-.271 1.9-.271h3M17945 49h3.724c.6 0 1.1-.2 1.5-.6 1.3-1.1 4.6-3.2 9.4.2.4.3.9.4 1.4.4h2.7c.8 0 1.6.4 2.1 1.1l1.3 1.8 9.876-41.6 9.102 40.015 3.088 1.77c1.8.2 5.841 8.346 6.941 8.346h3.3c.8 0 1.5-.4 2-1 4.662-5.995 3.371-8.978 5.569-11.239 1.324-.407 1.475-.29 1.9-.29h3M18030 49h3.66c.6 0 1.1-.2 1.5-.6 1.3-1.1 4.6-3.2 9.4.2.4.3.9.4 1.4.4h2.7c.8 0 1.6.4 2.1 1.1l1.3 1.8 9.94-41.6 9.161 39.953 3.045 1.744c1.8.2 5.85 8.459 6.95 8.459h3.3c.8 0 1.5-.4 2-1 4.698-6.041 3.405-8.876 5.544-11.263 1.335-.421 1.478-.307 1.9-.307h3M18115 49h3.604c.6 0 1.1-.2 1.5-.6 1.3-1.1 4.6-3.2 9.4.2.4.3.9.4 1.4.4h2.7c.8 0 1.6.4 2.1 1.1l1.3 1.8 9.996-41.6 9.215 39.898 3.006 1.721c1.8.2 5.858 8.56 6.958 8.56h3.3c.8 0 1.5-.4 2-1 4.73-6.082 3.436-8.786 5.521-11.285 1.345-.433 1.482-.321 1.9-.321h3M18200 49h3.553c.6 0 1.1-.2 1.5-.6 1.3-1.1 4.6-3.2 9.4.2.4.3.9.4 1.4.4h2.7c.8 0 1.6.4 2.1 1.1l1.3 1.8L18232 10.3l9.262 39.848 2.972 1.701c1.8.2 5.865 8.65 6.965 8.65h3.3c.8 0 1.5-.4 2-1 4.758-6.118 3.463-8.705 5.501-11.304 1.354-.444 1.485-.334 1.9-.334h3M18285 49h3.509c.6 0 1.1-.2 1.5-.6 1.3-1.1 4.6-3.2 9.4.2.4.3.9.4 1.4.4h2.7c.8 0 1.6.4 2.1 1.1l1.3 1.8L18317 10.3l9.304 39.804 2.942 1.684c1.8.2 5.871 8.729 6.971 8.729h3.3c.8 0 1.5-.4 2-1 4.783-6.15 3.487-8.634 5.483-11.321 1.362-.454 1.487-.346 1.9-.346h3M18370 49h3.469c.6 0 1.1-.2 1.5-.6 1.3-1.1 4.6-3.2 9.4.2.4.3.9.4 1.4.4h2.7c.8 0 1.6.4 2.1 1.1l1.3 1.8L18402 10.3l9.341 39.766 2.915 1.668c1.8.2 5.876 8.798 6.976 8.798h3.3c.8 0 1.5-.4 2-1 4.806-6.178 3.509-8.57 5.468-11.335 1.37-.463 1.49-.356 1.9-.356h3M18455 49h3.435c.6 0 1.1-.2 1.5-.6 1.3-1.1 4.6-3.2 9.4.2.4.3.9.4 1.4.4h2.7c.8 0 1.6.4 2.1 1.1l1.3 1.8L18487 10.3l9.373 39.732 2.892 1.654c1.8.2 5.881 8.86 6.981 8.86h3.3c.8 0 1.5-.4 2-1 4.825-6.203 3.527-8.516 5.454-11.349 1.376-.47 1.492-.365 1.9-.365h3M18540 49h3.405c.6 0 1.1-.2 1.5-.6 1.3-1.1 4.6-3.2 9.4.2.4.3.9.4 1.4.4h2.7c.8 0 1.6.4 2.1 1.1l1.3 1.8L18572 10.3l9.401 39.703 2.872 1.642c1.8.2 5.885 8.913 6.985 8.913h3.3c.8 0 1.5-.4 2-1 4.841-6.224 3.543-8.468 5.442-11.36 1.381-.477 1.494-.373 1.9-.373h3M18625 49h3.379c.6 0 1.1-.2 1.5-.6 1.3-1.1 4.6-3.2 9.4.2.4.3.9.4 1.4.4h2.7c.8 0 1.6.4 2.1 1.1l1.3 1.8L18657 10.3l9.425 39.678 2.854 1.632c1.8.2 5.889 8.958 6.989 8.958h3.3c.8 0 1.5-.4 2-1 4.856-6.243 3.557-8.427 5.432-11.37 1.386-.482 1.495-.379 1.9-.379h3M18710 49h3.358c.6 0 1.1-.2 1.5-.6 1.3-1.1 4.6-3.2 9.4.2.4.3.9.4 1.4.4h2.7c.8 0 1.6.4 2.1 1.1l1.3 1.8L18742 10.3l9.446 39.657 2.839 1.623c1.8.2 5.892 8.997 6.992 8.997h3.3c.8 0 1.5-.4 2-1 4.867-6.258 3.569-8.393 5.423-11.378 1.39-.487 1.497-.385 1.9-.385h3M18795 49h3.34c.6 0 1.1-.2 1.5-.6 1.3-1.1 4.6-3.2 9.4.2.4.3.9.4 1.4.4h2.7c.8 0 1.6.4 2.1 1.1l1.3 1.8 10.26-41.6 9.462 39.639 2.828 1.616c1.8.2 5.894 9.029 6.994 9.029h3.3c.8 0 1.5-.4 2-1 4.878-6.271 3.578-8.364 5.416-11.385 1.393-.491 1.498-.389 1.9-.389h3M18880 49h3.326c.6 0 1.1-.2 1.5-.6 1.3-1.1 4.6-3.2 9.4.2.4.3.9.4 1.4.4h2.7c.8 0 1.6.4 2.1 1.1l1.3 1.8L18912 10.3l9.476 39.625 2.817 1.611c1.8.2 5.897 9.054 6.997 9.054h3.3c.8 0 1.5-.4 2-1 4.885-6.282 3.586-8.342 5.41-11.391 1.395-.494 1.498-.393 1.9-.393h3M18965 49h3.315c.6 0 1.1-.2 1.5-.6 1.3-1.1 4.6-3.2 9.4.2.4.3.9.4 1.4.4h2.7c.8 0 1.6.4 2.1 1.1l1.3 1.8L18997 10.3l9.486 39.615 2.81 1.605c1.8.2 5.898 9.074 6.998 9.074h3.3c.8 0 1.5-.4 2-1 4.892-6.289 3.592-8.324 5.406-11.394 1.397-.497 1.499-.396 1.9-.396h3M19050 49h3.307c.6 0 1.1-.2 1.5-.6 1.3-1.1 4.6-3.2 9.4.2.4.3.9.4 1.4.4h2.7c.8 0 1.6.4 2.1 1.1l1.3 1.8L19082 10.3l9.493 39.607 2.805 1.603c1.8.2 5.899 9.087 6.999 9.087h3.3c.8 0 1.5-.4 2-1 4.896-6.295 3.596-8.311 5.403-11.397 1.399-.499 1.5-.398 1.9-.398h3M19135 49h3.302c.6 0 1.1-.2 1.5-.6 1.3-1.1 4.6-3.2 9.4.2.4.3.9.4 1.4.4h2.7c.8 0 1.6.4 2.1 1.1l1.3 1.8L19167 10.3l9.498 39.602 2.801 1.601c1.8.2 5.9 9.096 7 9.096h3.3c.8 0 1.5-.4 2-1 4.899-6.298 3.599-8.303 5.401-11.399 1.4-.5 1.5-.399 1.9-.399h3M19220 49h3.3c.6 0 1.1-.2 1.5-.6 1.3-1.1 4.6-3.2 9.4.2.4.3.9.4 1.4.4h2.7c.8 0 1.6.4 2.1 1.1l1.3 1.8 10.3-41.6 9.5 39.6 2.8 1.6c1.8.2 5.9 9.1 7 9.1h3.3c.8 0 1.5-.4 2-1 4.9-6.3 3.6-8.3 5.4-11.4 1.4-.5 1.5-.4 1.9-.4h3M19305 49h3.3c.6 0 1.1-.2 1.5-.6 1.3-1.1 4.6-3.2 9.4.2.4.3.9.4 1.4.4h2.7c.8 0 1.6.4 2.1 1.1l1.3 1.8 10.3-41.6 9.5 39.6 2.8 1.6c1.8.2 5.9 9.1 7 9.1h3.3c.8 0 1.5-.4 2-1 4.9-6.3 3.6-8.3 5.4-11.4 1.4-.5 1.5-.4 1.9-.4h3M19390 49h3.3c.6 0 1.1-.2 1.5-.6 1.3-1.1 4.6-3.2 9.4.2.4.3.9.4 1.4.4h2.7c.8 0 1.6.4 2.1 1.1l1.3 1.8 10.3-41.6 9.5 39.6 2.8 1.6c1.8.2 5.9 9.1 7 9.1h3.3c.8 0 1.5-.4 2-1 4.9-6.3 3.6-8.3 5.4-11.4 1.4-.5 1.5-.4 1.9-.4h3M19475 49h3.3c.6 0 1.1-.2 1.5-.6 1.3-1.1 4.6-3.2 9.4.2.4.3.9.4 1.4.4h2.7c.8 0 1.6.4 2.1 1.1l1.3 1.8 10.3-41.6 9.5 39.6 2.8 1.6c1.8.2 5.9 9.1 7 9.1h3.3c.8 0 1.5-.4 2-1 4.9-6.3 3.6-8.3 5.4-11.4 1.4-.5 1.5-.4 1.9-.4h3M19560 49h3.3c.6 0 1.1-.2 1.5-.6 1.3-1.1 4.6-3.2 9.4.2.4.3.9.4 1.4.4h2.7c.8 0 1.6.4 2.1 1.1l1.3 1.8 10.3-41.6 9.5 39.6 2.8 1.6c1.8.2 5.9 9.1 7 9.1h3.3c.8 0 1.5-.4 2-1 4.9-6.3 3.6-8.3 5.4-11.4 1.4-.5 1.5-.4 1.9-.4h3M19645 49h3.3c.6 0 1.1-.2 1.5-.6 1.3-1.1 4.6-3.2 9.4.2.4.3.9.4 1.4.4h2.7c.8 0 1.6.4 2.1 1.1l1.3 1.8 10.3-41.6 9.5 39.6 2.8 1.6c1.8.2 5.9 9.1 7 9.1h3.3c.8 0 1.5-.4 2-1 4.9-6.3 3.6-8.3 5.4-11.4 1.4-.5 1.5-.4 1.9-.4h3M19730 49h3.3c.6 0 1.1-.2 1.5-.6 1.3-1.1 4.6-3.2 9.4.2.4.3.9.4 1.4.4h2.7c.8 0 1.6.4 2.1 1.1l1.3 1.8 10.3-41.6 9.5 39.6 2.8 1.6c1.8.2 5.9 9.1 7 9.1h3.3c.8 0 1.5-.4 2-1 4.9-6.3 3.6-8.3 5.4-11.4 1.4-.5 1.5-.4 1.9-.4h3M19815 49h3.3c.6 0 1.1-.2 1.5-.6 1.3-1.1 4.6-3.2 9.4.2.4.3.9.4 1.4.4h2.7c.8 0 1.6.4 2.1 1.1l1.3 1.8 10.3-41.6 9.5 39.6 2.8 1.6c1.8.2 5.9 9.1 7 9.1h3.3c.8 0 1.5-.4 2-1 4.9-6.3 3.6-8.3 5.4-11.4 1.4-.5 1.5-.4 1.9-.4h3M19900 49h3.3c.6 0 1.1-.2 1.5-.6 1.3-1.1 4.6-3.2 9.4.2.4.3.9.4 1.4.4h2.7c.8 0 1.6.4 2.1 1.1l1.3 1.8 10.3-41.6 9.5 39.6 2.8 1.6c1.8.2 5.9 9.1 7 9.1h3.3c.8 0 1.5-.4 2-1 4.9-6.3 3.6-8.3 5.4-11.4 1.4-.5 1.5-.4 1.9-.4h3M19985 49h3.3c.6 0 1.1-.2 1.5-.6 1.3-1.1 4.6-3.2 9.4.2.4.3.9.4 1.4.4h2.7c.8 0 1.6.4 2.1 1.1l1.3 1.8 10.3-41.6 9.5 39.6 2.8 1.6c1.8.2 5.9 9.1 7 9.1h3.3c.8 0 1.5-.4 2-1 4.9-6.3 3.6-8.3 5.4-11.4 1.4-.5 1.5-.4 1.9-.4h3M20070 49h3.3c.6 0 1.1-.2 1.5-.6 1.3-1.1 4.6-3.2 9.4.2.4.3.9.4 1.4.4h2.7c.8 0 1.6.4 2.1 1.1l1.3 1.8 10.3-41.6 9.5 39.6 2.8 1.6c1.8.2 5.9 9.1 7 9.1h3.3c.8 0 1.5-.4 2-1 4.9-6.3 3.6-8.3 5.4-11.4 1.4-.5 1.5-.4 1.9-.4h3M20155 49h3.3c.6 0 1.1-.2 1.5-.6 1.3-1.1 4.6-3.2 9.4.2.4.3.9.4 1.4.4h2.7c.8 0 1.6.4 2.1 1.1l1.3 1.8 10.3-41.6 9.5 39.6 2.8 1.6c1.8.2 5.9 9.1 7 9.1h3.3c.8 0 1.5-.4 2-1 4.9-6.3 3.6-8.3 5.4-11.4 1.4-.5 1.5-.4 1.9-.4h3M20240 49h3.3c.6 0 1.1-.2 1.5-.6 1.3-1.1 4.6-3.2 9.4.2.4.3.9.4 1.4.4h2.7c.8 0 1.6.4 2.1 1.1l1.3 1.8 10.3-41.6 9.5 39.6 2.8 1.6c1.8.2 5.9 9.1 7 9.1h3.3c.8 0 1.5-.4 2-1 4.9-6.3 3.6-8.3 5.4-11.4 1.4-.5 1.5-.4 1.9-.4h3M20325 49h3.3c.6 0 1.1-.2 1.5-.6 1.3-1.1 4.6-3.2 9.4.2.4.3.9.4 1.4.4h2.7c.8 0 1.6.4 2.1 1.1l1.3 1.8 10.3-41.6 9.5 39.6 2.8 1.6c1.8.2 5.9 9.1 7 9.1h3.3c.8 0 1.5-.4 2-1 4.9-6.3 3.6-8.3 5.4-11.4 1.4-.5 1.5-.4 1.9-.4h3M20410 49h3.3c.6 0 1.1-.2 1.5-.6 1.3-1.1 4.6-3.2 9.4.2.4.3.9.4 1.4.4h2.7c.8 0 1.6.4 2.1 1.1l1.3 1.8 10.3-41.6 9.5 39.6 2.8 1.6c1.8.2 5.9 9.1 7 9.1h3.3c.8 0 1.5-.4 2-1 4.9-6.3 3.6-8.3 5.4-11.4 1.4-.5 1.5-.4 1.9-.4h3M20495 49h3.3c.6 0 1.1-.2 1.5-.6 1.3-1.1 4.6-3.2 9.4.2.4.3.9.4 1.4.4h2.7c.8 0 1.6.4 2.1 1.1l1.3 1.8 10.3-41.6 9.5 39.6 2.8 1.6c1.8.2 5.9 9.1 7 9.1h3.3c.8 0 1.5-.4 2-1 4.9-6.3 3.6-8.3 5.4-11.4 1.4-.5 1.5-.4 1.9-.4h3M20580 49h3.3c.6 0 1.1-.2 1.5-.6 1.3-1.1 4.6-3.2 9.4.2.4.3.9.4 1.4.4h2.7c.8 0 1.6.4 2.1 1.1l1.3 1.8 10.3-41.6 9.5 39.6 2.8 1.6c1.8.2 5.9 9.1 7 9.1h3.3c.8 0 1.5-.4 2-1 4.9-6.3 3.6-8.3 5.4-11.4 1.4-.5 1.5-.4 1.9-.4h3M20665 49h3.3c.6 0 1.1-.2 1.5-.6 1.3-1.1 4.6-3.2 9.4.2.4.3.9.4 1.4.4h2.7c.8 0 1.6.4 2.1 1.1l1.3 1.8 10.3-41.6 9.5 39.6 2.8 1.6c1.8.2 5.9 9.1 7 9.1h3.3c.8 0 1.5-.4 2-1 4.9-6.3 3.6-8.3 5.4-11.4 1.4-.5 1.5-.4 1.9-.4h3M20750 49h3.307c.6 0 1.1-.2 1.5-.6 1.3-1.1 4.6-3.2 9.4.2.4.3.9.4 1.4.4h2.7c.8 0 1.6.4 2.1 1.1l1.3 1.8L20782 10.3l9.493 39.607 2.799 1.592c1.798.198 5.894 9.085 6.994 9.085h3.3c.8 0 1.5-.4 2-1 4.896-6.295 3.606-8.302 5.414-11.384 1.399-.499 1.5-.398 1.9-.398h3M20835 49h3.326c.6 0 1.1-.2 1.5-.6 1.3-1.1 4.6-3.2 9.4.2.4.3.9.4 1.4.4h2.7c.8 0 1.6.4 2.1 1.1l1.3 1.8L20867 10.3l9.476 39.626 2.794 1.569c1.793.194 5.876 9.045 6.976 9.045h3.3c.8 0 1.5-.4 2-1 4.885-6.282 3.625-8.307 5.454-11.341 1.395-.494 1.498-.393 1.9-.393h3M20920 49h3.359c.6 0 1.1-.2 1.5-.6 1.3-1.1 4.6-3.2 9.4.2.4.3.9.4 1.4.4h2.7c.8 0 1.6.4 2.1 1.1l1.3 1.8L20952 10.3l9.444 39.658 2.787 1.531c1.784.186 5.846 8.974 6.946 8.974h3.3c.8 0 1.5-.4 2-1 4.867-6.258 3.658-8.315 5.523-11.264 1.389-.487 1.496-.385 1.9-.385h3M21005 49h3.409c.6 0 1.1-.2 1.5-.6 1.3-1.1 4.6-3.2 9.4.2.4.3.9.4 1.4.4h2.7c.8 0 1.6.4 2.1 1.1l1.3 1.8L21037 10.3l9.398 39.707 2.776 1.473c1.769.174 5.8 8.868 6.9 8.868h3.3c.8 0 1.5-.4 2-1 4.839-6.222 3.706-8.327 5.626-11.15 1.38-.476 1.493-.372 1.9-.372h3M21090 49h3.477c.6 0 1.1-.2 1.5-.6 1.3-1.1 4.6-3.2 9.4.2.4.3.9.4 1.4.4h2.7c.8 0 1.6.4 2.1 1.1l1.3 1.8L21122 10.3l9.333 39.774 2.761 1.394c1.751.157 5.737 8.72 6.837 8.72h3.3c.8 0 1.5-.4 2-1 4.801-6.172 3.774-8.342 5.769-10.992 1.368-.461 1.489-.353 1.9-.353h3M21175 49h3.568c.6 0 1.1-.2 1.5-.6 1.3-1.1 4.6-3.2 9.4.2.4.3.9.4 1.4.4h2.7c.8 0 1.6.4 2.1 1.1l1.3 1.8L21207 10.3l9.248 39.863 2.741 1.289c1.725.135 5.653 8.526 6.753 8.526h3.3c.8 0 1.5-.4 2-1 4.75-6.107 3.863-8.365 5.958-10.783 1.352-.441 1.484-.331 1.9-.331h3M21260 49h3.685c.6 0 1.1-.2 1.5-.6 1.3-1.1 4.6-3.2 9.4.2.4.3.9.4 1.4.4h2.7c.8 0 1.6.4 2.1 1.1l1.3 1.8 9.915-41.6 9.138 39.977 2.716 1.154c1.692.107 5.545 8.276 6.645 8.276h3.3c.8 0 1.5-.4 2-1 4.685-6.023 3.978-8.392 6.201-10.515 1.331-.415 1.477-.3 1.9-.3h3M21345 49h3.831c.6 0 1.1-.2 1.5-.6 1.3-1.1 4.6-3.2 9.4.2.4.3.9.4 1.4.4h2.7c.8 0 1.6.4 2.1 1.1l1.3 1.8 9.769-41.6 9 40.121 2.684.983c1.651.073 5.411 7.963 6.511 7.963h3.3c.8 0 1.5-.4 2-1 4.602-5.917 4.12-8.427 6.505-10.178 1.304-.383 1.468-.261 1.9-.261h3M21430 49h4.012c.6 0 1.1-.2 1.5-.6 1.3-1.1 4.6-3.2 9.4.2.4.3.9.4 1.4.4h2.7c.8 0 1.6.4 2.1 1.1l1.3 1.8 9.588-41.6 8.831 40.297 2.643.775c1.601.029 5.246 7.577 6.346 7.577h3.3c.8 0 1.5-.4 2-1 4.501-5.788 4.297-8.471 6.88-9.763 1.272-.344 1.457-.215 1.9-.215h3M21515 49h4.228c.6 0 1.1-.2 1.5-.6 1.3-1.1 4.6-3.2 9.4.2.4.3.9.4 1.4.4h2.7c.8 0 1.6.4 2.1 1.1l1.3 1.8 9.372-41.6 8.628 40.51 2.595.523c1.541-.023 5.047 7.114 6.147 7.114h3.3c.8 0 1.5-.4 2-1 4.38-5.632 4.509-8.523 7.33-9.266 1.233-.295 1.444-.158 1.9-.158h3M21600 49h4.48c.6 0 1.1-.2 1.5-.6 1.3-1.1 4.6-3.2 9.4.2.4.3.9.4 1.4.4h2.7c.8 0 1.6.4 2.1 1.1l1.3 1.8 9.12-41.6 8.391 40.757 2.54.231c1.469-.084 4.814 6.574 5.914 6.574h3.3c.8 0 1.5-.4 2-1 4.239-5.45 4.757-8.583 7.855-8.686 1.188-.24 1.429-.093 1.9-.093h3M21685 49h4.763c.6 0 1.1-.2 1.5-.6 1.3-1.1 4.6-3.2 9.4.2.4.3.9.4 1.4.4h2.7c.8 0 1.6.4 2.1 1.1l1.3 1.8 8.837-41.6 8.125 41.033 2.478-.096c1.391-.151 4.555 5.97 5.655 5.97h3.3c.8 0 1.5-.4 2-1 4.081-5.247 5.033-8.651 8.442-8.036 1.137-.178 1.412-.02 1.9-.02h3M21770 49h5.064c.6 0 1.1-.2 1.5-.6 1.3-1.1 4.6-3.2 9.4.2.4.3.9.4 1.4.4h2.7c.8 0 1.6.4 2.1 1.1l1.3 1.8 8.536-41.6 7.842 41.329 2.412-.447c1.306-.223 4.277 5.325 5.377 5.325h3.3c.8 0 1.5-.4 2-1 3.912-5.03 5.329-8.723 9.069-7.342 1.082-.112 1.394.058 1.9.058h3M21855 49h5.37c.6 0 1.1-.2 1.5-.6 1.3-1.1 4.6-3.2 9.4.2.4.3.9.4 1.4.4h2.7c.8 0 1.6.4 2.1 1.1l1.3 1.8 8.23-41.6 7.554 41.629 2.344-.802c1.221-.297 3.996 4.67 5.096 4.67h3.3c.8 0 1.5-.4 2-1 3.74-4.81 5.629-8.797 9.706-6.638 1.027-.045 1.376.138 1.9.138h3M21940 49h5.668c.6 0 1.1-.2 1.5-.6 1.3-1.1 4.6-3.2 9.4.2.4.3.9.4 1.4.4h2.7c.8 0 1.6.4 2.1 1.1l1.3 1.8 7.932-41.6 7.274 41.921 2.279-1.147c1.137-.369 3.721 4.032 4.821 4.032h3.3c.8 0 1.5-.4 2-1 3.574-4.595 5.921-8.868 10.326-5.953.974.021 1.358.215 1.9.215h3M22025 49h5.948c.6 0 1.1-.2 1.5-.6 1.3-1.1 4.6-3.2 9.4.2.4.3.9.4 1.4.4h2.7c.8 0 1.6.4 2.1 1.1l1.3 1.8 7.652-41.6 7.011 42.195 2.217-1.472c1.059-.435 3.464 3.434 4.564 3.434h3.3c.8 0 1.5-.4 2-1 3.418-4.394 6.195-8.936 10.908-5.31.923.083 1.341.288 1.9.288h3M22110 49h6.205c.6 0 1.1-.2 1.5-.6 1.3-1.1 4.6-3.2 9.4.2.4.3.9.4 1.4.4h2.7c.8 0 1.6.4 2.1 1.1l1.3 1.8 7.395-41.6 6.769 42.447 2.161-1.77c.987-.497 3.228 2.883 4.328 2.883h3.3c.8 0 1.5-.4 2-1 3.273-4.208 6.446-8.997 11.442-4.718.877.139 1.326.355 1.9.355h3M22195 49h6.438c.6 0 1.1-.2 1.5-.6 1.3-1.1 4.6-3.2 9.4.2.4.3.9.4 1.4.4h2.7c.8 0 1.6.4 2.1 1.1l1.3 1.8 7.162-41.6 6.55 42.675 2.11-2.04c.921-.553 3.013 2.384 4.113 2.384h3.3c.8 0 1.5-.4 2-1 3.142-4.04 6.675-9.053 11.927-4.182.835.191 1.312.416 1.9.416h3M22280 49h6.648c.6 0 1.1-.2 1.5-.6 1.3-1.1 4.6-3.2 9.4.2.4.3.9.4 1.4.4h2.7c.8 0 1.6.4 2.1 1.1l1.3 1.8 6.952-41.6 6.353 42.881 2.063-2.284c.863-.603 2.82 1.935 3.92 1.935h3.3c.8 0 1.5-.4 2-1 3.025-3.889 6.881-9.103 12.364-3.699.797.237 1.299.471 1.9.471h3M22365 49h6.837c.6 0 1.1-.2 1.5-.6 1.3-1.1 4.6-3.2 9.4.2.4.3.9.4 1.4.4h2.7c.8 0 1.6.4 2.1 1.1l1.3 1.8 6.763-41.6 6.175 43.066 2.022-2.503c.81-.648 2.646 1.532 3.746 1.532h3.3c.8 0 1.5-.4 2-1 2.92-3.754 7.067-9.149 12.757-3.266.763.278 1.288.52 1.9.52h3M22450 49h7.006c.6 0 1.1-.2 1.5-.6 1.3-1.1 4.6-3.2 9.4.2.4.3.9.4 1.4.4h2.7c.8 0 1.6.4 2.1 1.1l1.3 1.8 6.594-41.6 6.016 43.232 1.985-2.699c.762-.69 2.491 1.169 3.591 1.169h3.3c.8 0 1.5-.4 2-1 2.824-3.632 7.231-9.189 13.108-2.876.733.315 1.278.563 1.9.563h3M22535 49h7.158c.6 0 1.1-.2 1.5-.6 1.3-1.1 4.6-3.2 9.4.2.4.3.9.4 1.4.4h2.7c.8 0 1.6.4 2.1 1.1l1.3 1.8 6.442-41.6 5.874 43.381 1.951-2.875c.72-.726 2.351.844 3.451.844h3.3c.8 0 1.5-.4 2-1 2.739-3.523 7.38-9.226 13.424-2.527.706.349 1.269.603 1.9.603h3M22620 49h7.294c.6 0 1.1-.2 1.5-.6 1.3-1.1 4.6-3.2 9.4.2.4.3.9.4 1.4.4h2.7c.8 0 1.6.4 2.1 1.1l1.3 1.8 6.306-41.6 5.745 43.514 1.922-3.033c.681-.759 2.225.553 3.325.553h3.3c.8 0 1.5-.4 2-1 2.663-3.425 7.514-9.259 13.708-2.214.681.379 1.26.639 1.9.639h3M22705 49h7.417c.6 0 1.1-.2 1.5-.6 1.3-1.1 4.6-3.2 9.4.2.4.3.9.4 1.4.4h2.7c.8 0 1.6.4 2.1 1.1l1.3 1.8 6.183-41.6 5.63 43.634 1.895-3.175c.647-.788 2.112.29 3.212.29h3.3c.8 0 1.5-.4 2-1 2.595-3.336 7.635-9.288 13.963-1.931.659.405 1.253.67 1.9.67h3M22790 49h7.527c.6 0 1.1-.2 1.5-.6 1.3-1.1 4.6-3.2 9.4.2.4.3.9.4 1.4.4h2.7c.8 0 1.6.4 2.1 1.1l1.3 1.8 6.073-41.6 5.527 43.742 1.87-3.303c.616-.814 2.011.055 3.111.055h3.3c.8 0 1.5-.4 2-1 2.533-3.257 7.742-9.315 14.192-1.679.639.43 1.246.699 1.9.699h3M22875 49h7.626c.6 0 1.1-.2 1.5-.6 1.3-1.1 4.6-3.2 9.4.2.4.3.9.4 1.4.4h2.7c.8 0 1.6.4 2.1 1.1l1.3 1.8 5.974-41.6 5.434 43.839 1.848-3.418c.589-.838 1.92-.157 3.02-.157h3.3c.8 0 1.5-.4 2-1 2.477-3.186 7.839-9.338 14.398-1.451.621.452 1.24.725 1.9.725h3M22960 49h7.715c.6 0 1.1-.2 1.5-.6 1.3-1.1 4.6-3.2 9.4.2.4.3.9.4 1.4.4h2.7c.8 0 1.6.4 2.1 1.1l1.3 1.8 5.885-41.6 5.35 43.927 1.829-3.522c.563-.859 1.838-.348 2.938-.348h3.3c.8 0 1.5-.4 2-1 2.427-3.121 7.926-9.36 14.583-1.245.605.471 1.235.748 1.9.748h3M23045 49h7.795c.6 0 1.1-.2 1.5-.6 1.3-1.1 4.6-3.2 9.4.2.4.3.9.4 1.4.4h2.7c.8 0 1.6.4 2.1 1.1l1.3 1.8 5.805-41.6 5.275 44.005 1.811-3.614c.541-.879 1.764-.52 2.864-.52h3.3c.8 0 1.5-.4 2-1 2.383-3.063 8.005-9.378 14.75-1.061.591.489 1.23.769 1.9.769h3M23130 49h7.867c.6 0 1.1-.2 1.5-.6 1.3-1.1 4.6-3.2 9.4.2.4.3.9.4 1.4.4h2.7c.8 0 1.6.4 2.1 1.1l1.3 1.8 5.733-41.6 5.207 44.076 1.795-3.698c.522-.896 1.699-.673 2.799-.673h3.3c.8 0 1.5-.4 2-1 2.342-3.012 8.075-9.396 14.899-.896.578.504 1.226.787 1.9.787h3M23215 49h7.931c.6 0 1.1-.2 1.5-.6 1.3-1.1 4.6-3.2 9.4.2.4.3.9.4 1.4.4h2.7c.8 0 1.6.4 2.1 1.1l1.3 1.8 5.669-41.6 5.147 44.139 1.781-3.773c.503-.911 1.639-.811 2.739-.811h3.3c.8 0 1.5-.4 2-1 2.306-2.965 8.139-9.411 15.033-.748.566.519 1.222.805 1.9.805h3M23300 49h7.989c.6 0 1.1-.2 1.5-.6 1.3-1.1 4.6-3.2 9.4.2.4.3.9.4 1.4.4h2.7c.8 0 1.6.4 2.1 1.1l1.3 1.8 5.611-41.6 5.092 44.195 1.769-3.839c.487-.925 1.586-.934 2.686-.934h3.3c.8 0 1.5-.4 2-1 2.274-2.924 8.195-9.425 15.153-.616.556.532 1.219.819 1.9.819h3M23385 49h8.04c.6 0 1.1-.2 1.5-.6 1.3-1.1 4.6-3.2 9.4.2.4.3.9.4 1.4.4h2.7c.8 0 1.6.4 2.1 1.1l1.3 1.8 5.56-41.6 5.044 44.245 1.758-3.898c.472-.938 1.539-1.044 2.639-1.044h3.3c.8 0 1.5-.4 2-1 2.245-2.887 8.245-9.438 15.259-.498.547.543 1.216.833 1.9.833h3M23470 49h8.086c.6 0 1.1-.2 1.5-.6 1.3-1.1 4.6-3.2 9.4.2.4.3.9.4 1.4.4h2.7c.8 0 1.6.4 2.1 1.1l1.3 1.8 5.514-41.6 5.002 44.29 1.747-3.951c.46-.949 1.497-1.141 2.597-1.141h3.3c.8 0 1.5-.4 2-1 2.22-2.855 8.29-9.449 15.354-.394.539.553 1.213.845 1.9.845h3M23555 49h8.126c.6 0 1.1-.2 1.5-.6 1.3-1.1 4.6-3.2 9.4.2.4.3.9.4 1.4.4h2.7c.8 0 1.6.4 2.1 1.1l1.3 1.8 5.474-41.6 4.964 44.329 1.738-3.998c.449-.958 1.461-1.226 2.561-1.226h3.3c.8 0 1.5-.4 2-1 2.197-2.826 8.329-9.458 15.437-.302.531.562 1.21.855 1.9.855h3M23640 49h8.161c.6 0 1.1-.2 1.5-.6 1.3-1.1 4.6-3.2 9.4.2.4.3.9.4 1.4.4h2.7c.8 0 1.6.4 2.1 1.1l1.3 1.8 5.439-41.6 4.931 44.363 1.731-4.038c.439-.966 1.428-1.302 2.528-1.302h3.3c.8 0 1.5-.4 2-1 2.178-2.8 8.363-9.466 15.51-.22.525.569 1.208.864 1.9.864h3M23725 49h8.191c.6 0 1.1-.2 1.5-.6 1.3-1.1 4.6-3.2 9.4.2.4.3.9.4 1.4.4h2.7c.8 0 1.6.4 2.1 1.1l1.3 1.8 5.409-41.6 4.902 44.393 1.724-4.073c.431-.974 1.4-1.367 2.5-1.367h3.3c.8 0 1.5-.4 2-1 2.161-2.779 8.394-9.474 15.574-.151.52.576 1.207.872 1.9.872h3M23810 49h8.217c.6 0 1.1-.2 1.5-.6 1.3-1.1 4.6-3.2 9.4.2.4.3.9.4 1.4.4h2.7c.8 0 1.6.4 2.1 1.1l1.3 1.8 5.383-41.6 4.878 44.419 1.718-4.104c.423-.98 1.376-1.423 2.476-1.423h3.3c.8 0 1.5-.4 2-1 2.146-2.76 8.419-9.48 15.628-.09.515.581 1.205.878 1.9.878h3M23895 49h8.239c.6 0 1.1-.2 1.5-.6 1.3-1.1 4.6-3.2 9.4.2.4.3.9.4 1.4.4h2.7c.8 0 1.6.4 2.1 1.1l1.3 1.8 5.361-41.6 4.857 44.441 1.713-4.13c.417-.986 1.356-1.47 2.456-1.47h3.3c.8 0 1.5-.4 2-1 2.134-2.744 8.441-9.486 15.674-.04.511.587 1.204.884 1.9.884h3M23980 49h8.258c.6 0 1.1-.2 1.5-.6 1.3-1.1 4.6-3.2 9.4.2.4.3.9.4 1.4.4h2.7c.8 0 1.6.4 2.1 1.1l1.3 1.8 5.342-41.6 4.84 44.459 1.709-4.151c.412-.99 1.339-1.51 2.439-1.51h3.3c.8 0 1.5-.4 2-1 2.124-2.73 8.459-9.49 15.712.003.508.591 1.203.889 1.9.889h3M24065 49h8.272c.6 0 1.1-.2 1.5-.6 1.3-1.1 4.6-3.2 9.4.2.4.3.9.4 1.4.4h2.7c.8 0 1.6.4 2.1 1.1l1.3 1.8 5.328-41.6 4.826 44.473 1.706-4.168c.408-.993 1.325-1.541 2.425-1.541h3.3c.8 0 1.5-.4 2-1 2.116-2.72 8.473-9.493 15.743.037.505.593 1.202.892 1.9.892h3M24150 49h8.284c.6 0 1.1-.2 1.5-.6 1.3-1.1 4.6-3.2 9.4.2.4.3.9.4 1.4.4h2.7c.8 0 1.6.4 2.1 1.1l1.3 1.8 5.316-41.6 4.815 44.484 1.704-4.181c.404-.996 1.315-1.566 2.415-1.566h3.3c.8 0 1.5-.4 2-1 2.109-2.711 8.484-9.496 15.766.063.503.597 1.201.896 1.9.896h3M24235 49h8.292c.6 0 1.1-.2 1.5-.6 1.3-1.1 4.6-3.2 9.4.2.4.3.9.4 1.4.4h2.7c.8 0 1.6.4 2.1 1.1l1.3 1.8 5.308-41.6 4.807 44.492 1.702-4.191c.402-.998 1.307-1.583 2.407-1.583h3.3c.8 0 1.5-.4 2-1 2.105-2.705 8.493-9.498 15.784.082.501.598 1.2.898 1.9.898h3M24320 49h8.297c.6 0 1.1-.2 1.5-.6 1.3-1.1 4.6-3.2 9.4.2.4.3.9.4 1.4.4h2.7c.8 0 1.6.4 2.1 1.1l1.3 1.8 5.303-41.6 4.802 44.497 1.701-4.197c.401-.999 1.302-1.594 2.402-1.594h3.3c.8 0 1.5-.4 2-1 2.102-2.702 8.498-9.499 15.795.094.5.599 1.2.899 1.9.899h3M24405 49h8.3c.6 0 1.1-.2 1.5-.6 1.3-1.1 4.6-3.2 9.4.2.4.3.9.4 1.4.4h2.7c.8 0 1.6.4 2.1 1.1l1.3 1.8 5.3-41.6 4.8 44.5 1.7-4.2c.4-1 1.3-1.6 2.4-1.6h3.3c.8 0 1.5-.4 2-1 2.101-2.7 8.5-9.499 15.8.1.5.6 1.2.9 1.9.9h3M24490 49h8.3c.6 0 1.1-.2 1.5-.6 1.3-1.1 4.6-3.2 9.4.2.4.3.9.4 1.4.4h2.7c.8 0 1.6.4 2.1 1.1l1.3 1.8 5.3-41.6 4.8 44.5 1.7-4.2c.4-1 1.3-1.6 2.4-1.6h3.3c.8 0 1.5-.4 2-1 2.1-2.7 8.5-9.5 15.8.1.5.6 1.2.9 1.9.9h3M24575 49h8.3c.6 0 1.1-.2 1.5-.6 1.3-1.1 4.6-3.2 9.4.2.4.3.9.4 1.4.4h2.7c.8 0 1.6.4 2.1 1.1l1.3 1.8 5.3-41.6 4.8 44.5 1.7-4.2c.4-1 1.3-1.6 2.4-1.6h3.3c.8 0 1.5-.4 2-1 2.1-2.7 8.5-9.5 15.8.1.5.6 1.2.9 1.9.9h3M24660 49h8.3c.6 0 1.1-.2 1.5-.6 1.3-1.1 4.6-3.2 9.4.2.4.3.9.4 1.4.4h2.7c.8 0 1.6.4 2.1 1.1l1.3 1.8 5.3-41.6 4.8 44.5 1.7-4.2c.4-1 1.3-1.6 2.4-1.6h3.3c.8 0 1.5-.4 2-1 2.1-2.7 8.5-9.5 15.8.1.5.6 1.2.9 1.9.9h3M24745 49h8.3c.6 0 1.1-.2 1.5-.6 1.3-1.1 4.6-3.2 9.4.2.4.3.9.4 1.4.4h2.7c.8 0 1.6.4 2.1 1.1l1.3 1.8 5.3-41.6 4.8 44.5 1.7-4.2c.4-1 1.3-1.6 2.4-1.6h3.3c.8 0 1.5-.4 2-1 2.1-2.7 8.5-9.5 15.8.1.5.6 1.2.9 1.9.9h3M24830 49h8.3c.6 0 1.1-.2 1.5-.6 1.3-1.1 4.6-3.2 9.4.2.4.3.9.4 1.4.4h2.7c.8 0 1.6.4 2.1 1.1l1.3 1.8 5.3-41.6 4.8 44.5 1.7-4.2c.4-1 1.3-1.6 2.4-1.6h3.3c.8 0 1.5-.4 2-1 2.1-2.7 8.5-9.5 15.8.1.5.6 1.2.9 1.9.9h3M24915 49h8.3c.6 0 1.1-.2 1.5-.6 1.3-1.1 4.6-3.2 9.4.2.4.3.9.4 1.4.4h2.7c.8 0 1.6.4 2.1 1.1l1.3 1.8 5.3-41.6 4.8 44.5 1.7-4.2c.4-1 1.3-1.6 2.4-1.6h3.3c.8 0 1.5-.4 2-1 2.1-2.7 8.5-9.5 15.8.1.5.6 1.2.9 1.9.9h3M25000 49h8.3c.6 0 1.1-.2 1.5-.6 1.3-1.1 4.6-3.2 9.4.2.4.3.9.4 1.4.4h2.7c.8 0 1.6.4 2.1 1.1l1.3 1.8 5.3-41.6 4.8 44.5 1.7-4.2c.4-1 1.3-1.6 2.4-1.6h3.3c.8 0 1.5-.4 2-1 2.1-2.7 8.5-9.5 15.8.1.5.6 1.2.9 1.9.9h3M25085 49h8.3c.6 0 1.1-.2 1.5-.6 1.3-1.1 4.6-3.2 9.4.2.4.3.9.4 1.4.4h2.7c.8 0 1.6.4 2.1 1.1l1.3 1.8 5.3-41.6 4.8 44.5 1.7-4.2c.4-1 1.3-1.6 2.4-1.6h3.3c.8 0 1.5-.4 2-1 2.1-2.7 8.5-9.5 15.8.1.5.6 1.2.9 1.9.9h3M25170 49h8.3c.6 0 1.1-.2 1.5-.6 1.3-1.1 4.6-3.2 9.4.2.4.3.9.4 1.4.4h2.7c.8 0 1.6.4 2.1 1.1l1.3 1.8 5.3-41.6 4.8 44.5 1.7-4.2c.4-1 1.3-1.6 2.4-1.6h3.3c.8 0 1.5-.4 2-1 2.1-2.7 8.5-9.5 15.8.1.5.6 1.2.9 1.9.9h3M25255 49h8.3c.6 0 1.1-.2 1.5-.6 1.3-1.1 4.6-3.2 9.4.2.4.3.9.4 1.4.4h2.7c.8 0 1.6.4 2.1 1.1l1.3 1.8 5.3-41.6 4.8 44.5 1.7-4.2c.4-1 1.3-1.6 2.4-1.6h3.3c.8 0 1.5-.4 2-1 2.1-2.7 8.5-9.5 15.8.1.5.6 1.2.9 1.9.9h3M25340 49h8.3c.6 0 1.1-.2 1.5-.6 1.3-1.1 4.6-3.2 9.4.2.4.3.9.4 1.4.4h2.7c.8 0 1.6.4 2.1 1.1l1.3 1.8 5.3-41.6 4.8 44.5 1.7-4.2c.4-1 1.3-1.6 2.4-1.6h3.3c.8 0 1.5-.4 2-1 2.1-2.7 8.5-9.5 15.8.1.5.6 1.2.9 1.9.9h3M25425 49h8.3c.6 0 1.1-.2 1.5-.6 1.3-1.1 4.6-3.2 9.4.2.4.3.9.4 1.4.4h2.7c.8 0 1.6.4 2.1 1.1l1.3 1.8 5.3-41.6 4.8 44.5 1.7-4.2c.4-1 1.3-1.6 2.4-1.6h3.3c.8 0 1.5-.4 2-1 2.1-2.7 8.5-9.5 15.8.1.5.6 1.2.9 1.9.9h3M25510 49h8.3c.6 0 1.1-.2 1.5-.6 1.3-1.1 4.6-3.2 9.4.2.4.3.9.4 1.4.4h2.7c.8 0 1.6.4 2.1 1.1l1.3 1.8 5.3-41.6 4.8 44.5 1.7-4.2c.4-1 1.3-1.6 2.4-1.6h3.3c.8 0 1.5-.4 2-1 2.1-2.7 8.5-9.5 15.8.1.5.6 1.2.9 1.9.9h3" fill="none" stroke="#fcfcfc" stroke-width="3" stroke-linecap="round" stroke-linejoin="round" stroke-miterlimit="10"/></svg>